<?xml version="1.0" standalone="yes"?>
<svg xmlns="http://www.w3.org/2000/svg" width="512" height="512">
<path style="fill:#12131c; stroke:none;" d="M0 0L0 512L512 512L512 0L0 0z"/>
<path style="fill:#df4432; stroke:none;" d="M366 71C342.328 55.0434 317.344 40.7255 293 25.8109C282.622 19.4528 270.548 8.95517 258 8.09106C241.289 6.94028 223.427 22.8609 210 31.3187C175.56 53.012 140.44 73.6252 106 95.3187C87.1349 107.202 68.0886 118.879 49 130.399C38.2818 136.868 25.3813 142.894 16.0934 151.326C7.01687 159.565 5.43964 174.85 12.1088 184.999C29.8535 212.005 62.8027 183.441 81 172.05C122.117 146.312 163.535 120.971 205 95.7971C216.717 88.6832 228.283 81.3168 240 74.2029C244.34 71.5677 249.922 66.5286 255 65.7238C259.148 65.0662 263.702 68.9858 267 71.0501C276.295 76.8683 285.722 82.4745 295 88.3187C330.082 110.417 365.452 132.26 401 153.6C422.646 166.594 444.55 184.69 468 194.07C479.894 198.828 492.612 196.077 499.891 184.999C509.147 170.914 502.086 154.598 489 146.425C473.076 136.48 456.914 126.912 441 116.95C434.854 113.103 425.127 109.362 420.603 103.621C417.492 99.6719 419 91.7358 419 87L419 55C419 50.0229 420.013 43.6023 417.682 39.0193C412.944 29.7048 388.974 33.996 380 34C375.879 34.0019 371.425 33.5695 368.564 37.1481C362.677 44.5125 366 62.0582 366 71z"/>
<path style="fill:#f3b229; stroke:none;" d="M272 13L273 14L272 13M285 21L286 22L285 21M298 29L299 30L298 29M311 37L312 38L311 37M324 45L325 46L324 45M337 53L338 54L337 53M350 61L351 62L350 61M255.667 64.3333L256.333 64.6667L255.667 64.3333z"/>
<path style="fill:#d9d9d8; stroke:none;" d="M34 196L34 460C27.2389 460 15.5008 457.747 10.4336 463.279C4.66586 469.575 5.36861 499.848 14.0154 503.258C22.8898 506.758 37.505 504 47 504L122 504L380 504L465 504C474.171 504 490.767 507.189 498.956 502.821C506.723 498.678 507.221 468.033 500.772 462.514C495.426 457.94 484.551 460 478 460L478 196C460.138 195.619 439.756 177.287 425 168.05C385.527 143.341 345.709 119.139 306 94.8109C294.664 87.8658 283.269 81.0038 272 73.9499C267.664 71.2355 261.335 65.5494 256 65.5494C250.666 65.5494 244.336 71.2355 240 73.9499C228.731 81.0038 217.336 87.8658 206 94.8109C166.291 119.139 126.473 143.341 87 168.05C72.2436 177.287 51.8615 195.619 34 196z"/>
<path style="fill:#f3b229; stroke:none;" d="M252 66L253 67L252 66M259 66L260 67L259 66M250 67L251 68L250 67M261 67L262 68L261 67M247 69L248 70L247 69M264 69L265 70L264 69M363 69L364 70L363 69M266 70L267 71L266 70M242 72L243 73L242 72M269 72L270 73L269 72M239 74L240 75L239 74M272 74L273 75L272 74M237 75L238 76L237 75M274 75L275 76L274 75M234 77L235 78L234 77M277 77L278 78L277 77M279 78L280 79L279 78M229 80L230 81L229 80M282 80L283 81L282 80M226 82L227 83L226 82M285 82L286 83L285 82M224 83L225 84L224 83M287 83L288 84L287 83M221 85L222 86L221 85M290 85L291 86L290 85M292 86L293 87L292 86M216 88L217 89L216 88M295 88L296 89L295 88M213 90L214 91L213 90M298 90L299 91L298 90M211 91L212 92L211 91M300 91L301 92L300 91M208 93L209 94L208 93M303 93L304 94L303 93M305 94L306 95L305 94M203 96L204 97L203 96M308 96L309 97L308 96M200 98L201 99L200 98M311 98L312 99L311 98M198 99L199 100L198 99M313 99L314 100L313 99M195 101L196 102L195 101M316 101L317 102L316 101M318 102L319 103L318 102M190 104L191 105L190 104M321 104L322 105L321 104M187 106L188 107L187 106M324 106L325 107L324 106M185 107L186 108L185 107M326 107L327 108L326 107M182 109L183 110L182 109M329 109L330 110L329 109M428 109L429 110L428 109M331 110L332 111L331 110M177 112L178 113L177 112M334 112L335 113L334 112M174 114L175 115L174 114M337 114L338 115L337 114M172 115L173 116L172 115M339 115L340 116L339 115M169 117L170 118L169 117M342 117L343 118L342 117M441 117L442 118L441 117M344 118L345 119L344 118M164 120L165 121L164 120M347 120L348 121L347 120M161 122L162 123L161 122M350 122L351 123L350 122M159 123L160 124L159 123M352 123L353 124L352 123M156 125L157 126L156 125M355 125L356 126L355 125M454 125L455 126L454 125M357 126L358 127L357 126M151 128L152 129L151 128M360 128L361 129L360 128M148 130L149 131L148 130M363 130L364 131L363 130M146 131L147 132L146 131M365 131L366 132L365 131M143 133L144 134L143 133M368 133L369 134L368 133M467 133L468 134L467 133M370 134L371 135L370 134M138 136L139 137L138 136M373 136L374 137L373 136M135 138L136 139L135 138M376 138L377 139L376 138M133 139L134 140L133 139M378 139L379 140L378 139M130 141L131 142L130 141M381 141L382 142L381 141M480 141L481 142L480 141M383 142L384 143L383 142M125 144L126 145L125 144M386 144L387 145L386 144M122 146L123 147L122 146M389 146L390 147L389 146M120 147L121 148L120 147M391 147L392 148L391 147M117 149L118 150L117 149M394 149L395 150L394 149M112 152L113 153L112 152M399 152L400 153L399 152M109 154L110 155L109 154M402 154L403 155L402 154M107 155L108 156L107 155M404 155L405 156L404 155M104 157L105 158L104 157M407 157L408 158L407 157M409 158L410 159L409 158M99 160L100 161L99 160M412 160L413 161L412 160M96 162L97 163L96 162M415 162L416 163L415 162M94 163L95 164L94 163M417 163L418 164L417 163M91 165L92 166L91 165M420 165L421 166L420 165M422 166L423 167L422 166M86 168L87 169L86 168M425 168L426 169L425 168M83 170L84 171L83 170M428 170L429 171L428 170M81 171L82 172L81 171M430 171L431 172L430 171M78 173L79 174L78 173M433 173L434 174L433 173M73 176L74 177L73 176M438 176L439 177L438 176M70 178L71 179L70 178M441 178L442 179L441 178M68 179L69 180L68 179M443 179L444 180L443 179M65 181L66 182L65 181M446 181L447 182L446 181M448 182L449 183L448 182M60 184L61 185L60 184M451 184L452 185L451 184M57 186L58 187L57 186M454 186L455 187L454 186M55 187L56 188L55 187M456 187L457 188L456 187M52 189L53 190L52 189M459 189L460 190L459 189M461 190L462 191L461 190M47 192L48 193L47 192M464 192L465 193L464 192M45 193L46 194L45 193M466 193L467 194L466 193M43 194L44 195L43 194M468 194L469 195L468 194M40 195L41 196L40 195M471.667 195.333L472.333 195.667L471.667 195.333M30 196L31 197L30 196z"/>
<path style="fill:#59c2dc; stroke:none;" d="M97 222L98 223L97 222z"/>
<path style="fill:#df4432; stroke:none;" d="M98 222L99 223L98 222z"/>
<path style="fill:#12131c; stroke:none;" d="M86 461L172 461C178.974 461 197.873 464.347 203.397 459.972C206.351 457.632 205 450.316 205 447L205 408L205 277C205 263.841 209.739 238.778 200.606 228.105C194.2 220.619 183.807 222 175 222L113 222C104.324 222 94.4401 221.099 88.6528 229.043C84.7952 234.338 86 241.826 86 248L86 292L86 461z"/>
<path style="fill:#df4432; stroke:none;" d="M191 222L192 223L191 222z"/>
<path style="fill:#59c2dc; stroke:none;" d="M192 222L193 223L192 222M275.667 222.333L276.333 222.667L275.667 222.333z"/>
<path style="fill:#12131c; stroke:none;" d="M277 222.468C265.278 224.679 257.422 234.385 256.174 246C252.782 277.568 256 311.235 256 343C256 356.034 253.435 371.861 261.789 382.96C270.583 394.644 286.187 392 299 392L371 392C382.43 392 395.814 393.908 407 391.481C416.514 389.417 425.091 380.905 425.907 371C428.586 338.476 426 304.645 426 272C426 259.571 429.137 242.64 421.362 232.015C412.594 220.032 397.027 222 384 222L313 222C301.434 222 288.379 220.321 277 222.468z"/>
<path style="fill:#df4432; stroke:none;" d="M405 222L406 223L405 222z"/>
<path style="fill:#59c2dc; stroke:none;" d="M406 222L407 223L406 222z"/>
<path style="fill:#df4432; stroke:none;" d="M95 223L96 224L95 223M194 223L195 224L194 223z"/>
<path style="fill:#59c2dc; stroke:none;" d="M272 223L273 224L272 223z"/>
<path style="fill:#df4432; stroke:none;" d="M409 223L410 224L409 223z"/>
<path style="fill:#59c2dc; stroke:none;" d="M410 223L411 224L410 223M93 224L94 225L93 224z"/>
<path style="fill:#df4432; stroke:none;" d="M196 224L197 225L196 224z"/>
<path style="fill:#59c2dc; stroke:none;" d="M270 224L271 225L270 224M412 224L413 225L412 224M198 225L199 226L198 225M268 225L269 226L268 225M90 226L91 227L90 226M199 226L200 227L199 226z"/>
<path style="fill:#df4432; stroke:none;" d="M415 226L416 227L415 226z"/>
<path style="fill:#59c2dc; stroke:none;" d="M200 227L201 228L200 227M265 227L266 228L265 227M264 228L265 229L264 228M263 229L264 230L263 229M87 230L88 231L87 230M202 230L203 231L202 230M262 230L263 231L262 230M261 231L262 232L261 231M86 232L87 233L86 232M203 232L204 233L203 232M422 233L423 234L422 233M259 234L260 235L259 234M85 235L85 239L86 239L85 235M204.333 235.667L204.667 236.333L204.333 235.667z"/>
<path style="fill:#df4432; stroke:none;" d="M423 235L424 236L423 235z"/>
<path style="fill:#59c2dc; stroke:none;" d="M258 236L259 237L258 236z"/>
<path style="fill:#df4432; stroke:none;" d="M204 237L205 238L204 237z"/>
<path style="fill:#59c2dc; stroke:none;" d="M424 237L425 238L424 237M257 238L258 239L257 238z"/>
<path style="fill:#df4432; stroke:none;" d="M85 239L85 460L86 460L86 304L86 260L85 239M257 239L258 240L257 239z"/>
<path style="fill:#59c2dc; stroke:none;" d="M273 299L333 299L333 239L292 239C287.018 239 279.477 237.599 275.653 241.573C271.762 245.615 273 252.894 273 258L273 299M350 239L350 299L410 299L410 258C410 252.651 411.113 245.457 406.721 241.434C402.593 237.652 395.145 239 390 239L350 239M425 239L426 240L425 239z"/>
<path style="fill:#df4432; stroke:none;" d="M425 240L426 241L425 240z"/>
<path style="fill:#59c2dc; stroke:none;" d="M256 242L257 243L256 242z"/>
<path style="fill:#df4432; stroke:none;" d="M256 243L257 244L256 243z"/>
<path style="fill:#59c2dc; stroke:none;" d="M426 243L426 247L427 247L426 243z"/>
<path style="fill:#df4432; stroke:none;" d="M426 247L426 367L427 367L427 283L426 247z"/>
<path style="fill:#59c2dc; stroke:none;" d="M273 316L273 357C273 362.204 271.654 369.595 276.228 373.297C283.184 378.926 298.587 376 307 376C312.098 376 328.602 378.652 331.972 374.397C334.544 371.15 333 362.929 333 359L333 316L273 316M350 316L350 376L391 376C396.273 376 403.388 376.913 407.347 372.581C411.186 368.381 410 361.214 410 356L410 316L350 316z"/>
<path style="fill:#df4432; stroke:none;" d="M133 324L134 325L133 324z"/>
<path style="fill:#f3b229; stroke:none;" d="M134 324.483C112.06 328.155 117.911 361.262 140 357.786C160.691 354.531 154.848 320.993 134 324.483z"/>
<path style="fill:#df4432; stroke:none;" d="M139 324L140 325L139 324M126 327L127 328L126 327M146 327L147 328L146 327M122 331L123 332L122 331M150 331L151 332L150 331M120 335L121 336L120 335M152 335L153 336L152 335M119 338L119 344L120 344L119 338M153 338L153 345L154 345L153 338M120 347L121 348L120 347M152 347L153 348L152 347M121 349L122 350L121 349M151 349L152 350L151 349M123 352L124 353L123 352M149 352L150 353L149 352M124 353L125 354L124 353M148 353L149 354L148 353M125 354L126 355L125 354M147 354L148 355L147 354M128 356L129 357L128 356M144 356L145 357L144 356M130 357L131 358L130 357M142 357L143 358L142 357M135 358L135 359L139 359L135 358z"/>
<path style="fill:#59c2dc; stroke:none;" d="M426 367L426 371L427 371L426 367z"/>
<path style="fill:#df4432; stroke:none;" d="M256 370L257 371L256 370z"/>
<path style="fill:#59c2dc; stroke:none;" d="M256.333 371.667L256.667 372.333L256.333 371.667M425 374L426 375L425 374M257 375L258 376L257 375z"/>
<path style="fill:#df4432; stroke:none;" d="M258 377L259 378L258 377z"/>
<path style="fill:#59c2dc; stroke:none;" d="M424 377L425 378L424 377z"/>
<path style="fill:#df4432; stroke:none;" d="M259 379L260 380L259 379z"/>
<path style="fill:#59c2dc; stroke:none;" d="M423 379L424 380L423 379z"/>
<path style="fill:#df4432; stroke:none;" d="M422 380L423 381L422 380z"/>
<path style="fill:#59c2dc; stroke:none;" d="M260 381L261 382L260 381z"/>
<path style="fill:#df4432; stroke:none;" d="M261 382L262 383L261 382z"/>
<path style="fill:#59c2dc; stroke:none;" d="M421 382L422 383L421 382M420 383L421 384L420 383z"/>
<path style="fill:#df4432; stroke:none;" d="M419 384L420 385L419 384z"/>
<path style="fill:#59c2dc; stroke:none;" d="M418 385L419 386L418 385M417 386L418 387L417 386M266 387L267 388L266 387M416 387L417 388L416 387z"/>
<path style="fill:#df4432; stroke:none;" d="M414 388L415 389L414 388z"/>
<path style="fill:#59c2dc; stroke:none;" d="M269 389L270 390L269 389M271 390L272 391L271 390z"/>
<path style="fill:#df4432; stroke:none;" d="M410 390L411 391L410 390z"/>
<path style="fill:#59c2dc; stroke:none;" d="M274 391L275 392L274 391z"/>
<path style="fill:#df4432; stroke:none;" d="M407 391L408 392L407 391z"/>
<path style="fill:#59c2dc; stroke:none;" d="M408 391L409 392L408 391M278 392L278 393L404 393C393.973 388.792 376.896 392 366 392L278 392M85 460L86 461L85 460z"/>
<path style="fill:#df4432; stroke:none;" d="M204 460L205 461L204 460z"/>
</svg>
