<?xml version="1.0" standalone="yes"?>
<svg xmlns="http://www.w3.org/2000/svg" width="512" height="512">
<path style="fill:#010101; stroke:none;" d="M0 0L0 233L1 233C1.01628 208.425 9.0915 182.59 18.2006 160C45.7983 91.5581 103.912 36.3852 174 13C192.691 6.76367 213.154 1.05466 233 1L211 0L164 0L0 0z"/>
<path style="fill:#5b97d7; stroke:none;" d="M57 419C65.2492 412.672 70.722 402.476 78.0147 395C97.2026 375.33 117.714 357.474 142 344.309C248.93 286.34 382.058 321.267 455 417C473.644 402.699 486.084 372.289 494.6 351C526.816 270.464 514.756 175.095 463.848 105C378.149 -12.9979 206.928 -33.9319 94.0008 56.8002C71.9891 74.4855 53.1714 96.0373 38.3164 120C12.4644 161.702 0 208.136 0 257C0 298.92 9.69439 339.905 29.554 377C37.4501 391.749 49.4395 404.395 57 419z"/>
<path style="fill:#010101; stroke:none;" d="M279 0L279 1C298.846 1.05466 319.309 6.7637 338 13C408.072 36.3799 466.205 91.5662 493.799 160C502.906 182.585 510.932 208.434 511 233L512 233L512 0L279 0z"/>
<path style="fill:#87b4e7; stroke:none;" d="M224 1L225 2L224 1M217 2L218 3L217 2M210.667 3.33334L211.333 3.66666L210.667 3.33334z"/>
<path style="fill:#01ffff; stroke:none;" d="M184 9L185 10L184 9M327 9L328 10L327 9z"/>
<path style="fill:#87b4e7; stroke:none;" d="M181 10L182 11L181 10M178 11L179 12L178 11M172 13L173 14L172 13M143 25L144 26L143 25M141 26L142 27L141 26M139 27L140 28L139 27M133 30L134 31L133 30z"/>
<path style="fill:#01ffff; stroke:none;" d="M380 31L381 32L380 31z"/>
<path style="fill:#87b4e7; stroke:none;" d="M130 32L131 33L130 32M128 33L129 34L128 33M126 34L127 35L126 34M121 37L122 38L121 37M118 39L119 40L118 39z"/>
<path style="fill:#01ffff; stroke:none;" d="M116 40L117 41L116 40M113 42L114 43L113 42z"/>
<path style="fill:#87b4e7; stroke:none;" d="M106 47L107 48L106 47M105 48L106 49L105 48M98 53L99 54L98 53z"/>
<path style="fill:#01ffff; stroke:none;" d="M94 56L95 57L94 56M417 56L418 57L417 56z"/>
<path style="fill:#87b4e7; stroke:none;" d="M93 57L94 58L93 57M242 61L242 62L247 62L242 61z"/>
<path style="fill:#caf0fe; stroke:none;" d="M247 61.4252C217.845 65.3937 191.76 80.6911 177.312 107C167.529 124.813 166 143.12 166 163C166 178.894 165.376 194.747 170.695 210C184.092 248.412 223.761 275.778 265 270.714C300.973 266.296 331.835 242.19 342.279 207C346.483 192.838 346 178.595 346 164C346 150.701 346.107 137.895 342.279 125C330.436 85.0962 289.069 55.6987 247 61.4252z"/>
<path style="fill:#87b4e7; stroke:none;" d="M266.667 61.3333L267.333 61.6667L266.667 61.3333M237 62L237 63L240 63L237 62M272.667 62.3333L273.333 62.6667L272.667 62.3333M86 63L87 64L86 63M233.667 63.3333L234.333 63.6667L233.667 63.3333M277 63L278 64L277 63M229.667 64.3333L230.333 64.6667L229.667 64.3333M281 64L282 65L281 64M226.667 65.3333L227.333 65.6667L226.667 65.3333M284 65L285 66L284 65M224 66L225 67L224 66M287 66L288 67L287 66M221.667 67.3333L222.333 67.6667L221.667 67.3333M219 68L220 69L219 68M292 68L293 69L292 68M216.667 69.3333L217.333 69.6667L216.667 69.3333M294 69L295 70L294 69M215 70L216 71L215 70M296 70L297 71L296 70M213 71L214 72L213 71M298 71L299 72L298 71M211 72L212 73L211 72M300 72L301 73L300 72z"/>
<path style="fill:#01ffff; stroke:none;" d="M75 73L76 74L75 73z"/>
<path style="fill:#87b4e7; stroke:none;" d="M209 73L210 74L209 73z"/>
<path style="fill:#01ffff; stroke:none;" d="M436 73L437 74L436 73z"/>
<path style="fill:#87b4e7; stroke:none;" d="M208 74L209 75L208 74M303 74L304 75L303 74z"/>
<path style="fill:#01ffff; stroke:none;" d="M73 75L74 76L73 75z"/>
<path style="fill:#87b4e7; stroke:none;" d="M206 75L207 76L206 75z"/>
<path style="fill:#01ffff; stroke:none;" d="M438 75L439 76L438 75z"/>
<path style="fill:#87b4e7; stroke:none;" d="M205 76L206 77L205 76M306 76L307 77L306 76M203 77L204 78L203 77M202 78L203 79L202 78M309 78L310 79L309 78M201 79L202 80L201 79M199 80L200 81L199 80M198 81L199 82L198 81M313 81L314 82L313 81M197 82L198 83L197 82M314 82L315 83L314 82M196 83L197 84L196 83M193 85L194 86L193 85M63 86L64 87L63 86M191 87L192 88L191 87M190 88L191 89L190 88M188 91L189 92L188 91M323 91L324 92L323 91M187 92L188 93L187 92M324 92L325 93L324 92M57 93L58 94L57 93M186 93L187 94L186 93M325 93L326 94L325 93z"/>
<path style="fill:#01ffff; stroke:none;" d="M56 94L57 95L56 94z"/>
<path style="fill:#87b4e7; stroke:none;" d="M185 94L186 95L185 94z"/>
<path style="fill:#01ffff; stroke:none;" d="M455 94L456 95L455 94z"/>
<path style="fill:#87b4e7; stroke:none;" d="M184 95L185 96L184 95M183 97L184 98L183 97M328 97L329 98L328 97M182 98L183 99L182 98M181 100L182 101L181 100M330 100L331 101L330 100M51 101L52 102L51 101M180 101L181 102L180 101M179 103L180 104L179 103M332 103L333 104L332 103M178 104L179 105L178 104M177 106L178 107L177 106M334 106L335 107L334 106M176 108L177 109L176 108M335 108L336 109L335 108M175 110L176 111L175 110M336 110L337 111L336 110M174.333 111.667L174.667 112.333L174.333 111.667M337 112L338 113L337 112z"/>
<path style="fill:#01ffff; stroke:none;" d="M469 113L470 114L469 113z"/>
<path style="fill:#87b4e7; stroke:none;" d="M173 114L174 115L173 114M338 114L339 115L338 114z"/>
<path style="fill:#01ffff; stroke:none;" d="M40 116L41 117L40 116z"/>
<path style="fill:#87b4e7; stroke:none;" d="M172.333 116.667L172.667 117.333L172.333 116.667M39 118L40 119L39 118M171 119L172 120L171 119M340 119L341 120L340 119M37 121L38 122L37 121M170.333 121.667L170.667 122.333L170.333 121.667M341 122L342 123L341 122M169.333 124.667L169.667 125.333L169.333 124.667M342 125L343 126L342 125M34 126L35 127L34 126M33 128L34 129L33 128M168.333 128.667L168.667 129.333L168.333 128.667M343 129L344 130L343 129z"/>
<path style="fill:#01ffff; stroke:none;" d="M31 131L32 132L31 131M480 131L481 132L480 131z"/>
<path style="fill:#87b4e7; stroke:none;" d="M167 132L167 135L168 135L167 132M30 133L31 134L30 133M344.333 133.667L344.667 134.333L344.333 133.667M29 135L30 136L29 135M166 137L166 142L167 142L166 137M27 139L28 140L27 139M345.333 139.667L345.667 140.333L345.333 139.667M26 141L27 142L26 141M25 143L26 144L25 143M24 145L25 146L24 145M18 159L19 160L18 159M10 181L11 182L10 181z"/>
<path style="fill:#01ffff; stroke:none;" d="M9 184L10 185L9 184z"/>
<path style="fill:#87b4e7; stroke:none;" d="M166 190L166 195L167 195L166 190M345.333 191.667L345.667 192.333L345.333 191.667M167 197L167 200L168 200L167 197M344.333 197.667L344.667 198.333L344.333 197.667M168.333 202.667L168.667 203.333L168.333 202.667M343 202L344 203L343 202M4 205L5 206L4 205M169.333 206.667L169.667 207.333L169.333 206.667M342 206L343 207L342 206M170.333 209.667L170.667 210.333L170.333 209.667M341 209L342 210L341 209M3.33333 210.667L3.66667 211.333L3.33333 210.667M171 212L172 213L171 212M340 212L341 213L340 212M172.333 214.667L172.667 215.333L172.333 214.667z"/>
<path style="fill:#01ffff; stroke:none;" d="M509 216L510 217L509 216z"/>
<path style="fill:#87b4e7; stroke:none;" d="M173 217L174 218L173 217M338 217L339 218L338 217M174.333 219.667L174.667 220.333L174.333 219.667M337 219L338 220L337 219M175 221L176 222L175 221M336 221L337 222L336 221z"/>
<path style="fill:#01ffff; stroke:none;" d="M1 223L2 224L1 223z"/>
<path style="fill:#87b4e7; stroke:none;" d="M176 223L177 224L176 223M335 223L336 224L335 223M1 224L2 225L1 224M177 225L178 226L177 225M334 225L335 226L334 225M178 227L179 228L178 227M179 228L180 229L179 228M332 228L333 229L332 228M180 230L181 231L180 230M181 231L182 232L181 231M330 231L331 232L330 231M182 233L183 234L182 233M0 234L1 235L0 234M183 234L184 235L183 234M328 234L329 235L328 234M184 235L185 236L184 235M185 237L186 238L185 237M186 238L187 239L186 238M325 238L326 239L325 238M187 239L188 240L187 239M324 239L325 240L324 239M188 240L189 241L188 240M323 240L324 241L323 240M190 243L191 244L190 243M191 244L192 245L191 244M192 245L193 246L192 245M193 246L194 247L193 246M196 248L197 249L196 248M315 248L316 249L315 248M197 249L198 250L197 249M314 249L315 250L314 249M198 250L199 251L198 250M313 250L314 251L313 250M199 251L200 252L199 251M201 252L202 253L201 252M202 253L203 254L202 253M309 253L310 254L309 253M203 254L204 255L203 254M205 255L206 256L205 255M306 255L307 256L306 255M206 256L207 257L206 256M208 257L209 258L208 257M303 257L304 258L303 257M209 258L210 259L209 258M211 259L212 260L211 259M300 259L301 260L300 259M213 260L214 261L213 260M298 260L299 261L298 260M215 261L216 262L215 261M296 261L297 262L296 261M217 262L218 263L217 262M294 262L295 263L294 262M219 263L220 264L219 263M292 263L293 264L292 263M221.667 264.333L222.333 264.667L221.667 264.333M223.667 265.333L224.333 265.667L223.667 265.333M287 265L288 266L287 265M226.667 266.333L227.333 266.667L226.667 266.333M284 266L285 267L284 266M229 267L229 268L232 268L229 267M281 267L282 268L281 267M233.667 268.333L234.333 268.667L233.667 268.333M277 268L278 269L277 268M237 269L237 270L240 270L237 269M272.667 269.333L273.333 269.667L272.667 269.333M243 270L243 271L247 271L243 270M266.667 270.333L267.333 270.667L266.667 270.333M0.333333 277.667L0.666667 278.333L0.333333 277.667z"/>
<path style="fill:#010101; stroke:none;" d="M0 279L0 512L233 512L233 511C144.858 510.757 58.6772 441.038 23.3086 364C15.393 346.759 9.16444 328.566 5.21065 310C3.16112 300.376 3.74146 287.896 0 279M511 279C510.945 298.831 505.233 319.315 499 338C475.646 408.007 420.347 466.24 352 493.799C329.436 502.898 303.547 510.932 279 511L279 512L512 512L512 348L512 301L511 279z"/>
<path style="fill:#87b4e7; stroke:none;" d="M1 287L2 288L1 287z"/>
<path style="fill:#01ffff; stroke:none;" d="M509 295L510 296L509 295z"/>
<path style="fill:#87b4e7; stroke:none;" d="M3 300L4 301L3 300z"/>
<path style="fill:#01ffff; stroke:none;" d="M508 301L509 302L508 301z"/>
<path style="fill:#87b4e7; stroke:none;" d="M4 306L5 307L4 306z"/>
<path style="fill:#01ffff; stroke:none;" d="M506 311L507 312L506 311z"/>
<path style="fill:#87b4e7; stroke:none;" d="M6 315L7 316L6 315M234 316L234 317L241 317L234 316z"/>
<path style="fill:#caf0fe; stroke:none;" d="M379 480L381 481C386.998 475.11 396.023 471.636 402.95 466.711C415.72 457.632 428.089 447.314 438.961 435.999C442.782 432.022 453.985 423.004 453.809 417C453.614 410.383 439.499 399.499 435 395C414.551 374.55 392.705 356.223 367 342.703C285.529 299.851 181.367 309.167 109 366.211C92.4699 379.241 70.6774 396.933 60.8981 416C57.2674 423.079 68.5964 431.54 73.0039 436C89.574 452.769 107.754 466.723 128 478.799C185.197 512.914 257.136 520.013 321 503.873C335.725 500.152 350.121 495.031 364 488.858C369.02 486.625 375.905 484.725 379 480z"/>
<path style="fill:#87b4e7; stroke:none;" d="M272 316L272 317L277 317L272 316M224 317L224 318L229 318L224 317M284 317L284 318L287 318L284 317M218 318L218 319L221 319L218 318M292.667 318.333L293.333 318.667L292.667 318.333M212 319L212 320L215 320L212 319M298.667 319.333L299.333 319.667L298.667 319.333M206 320L206 321L209 321L206 320M304.667 320.333L305.333 320.667L304.667 320.333M202 321L202 322L205 322L202 321M309 321L310 322L309 321M197 322L197 323L200 323L197 322M313.667 322.333L314.333 322.667L313.667 322.333M193 323L193 324L196 324L193 323M317 323L318 324L317 323M190.667 324.333L191.333 324.667L190.667 324.333M321 324L322 325L321 324M187.667 325.333L188.333 325.667L187.667 325.333M325 325L326 326L325 325M183.667 326.333L184.333 326.667L183.667 326.333M328 326L329 327L328 326M180.667 327.333L181.333 327.667L180.667 327.333M331 327L332 328L331 327M177.667 328.333L178.333 328.667L177.667 328.333M334 328L335 329L334 328M174.667 329.333L175.333 329.667L174.667 329.333M337 329L338 330L337 329M10 330L11 331L10 330M172 330L173 331L172 330M169.667 331.333L170.333 331.667L169.667 331.333M342 331L343 332L342 331M166.667 332.333L167.333 332.667L166.667 332.333M345 332L346 333L345 332M164.667 333.333L165.333 333.667L164.667 333.333M347 333L348 334L347 333M162 334L163 335L162 334M159.667 335.333L160.333 335.667L159.667 335.333M352 335L353 336L352 335M157.667 336.333L158.333 336.667L157.667 336.333M354 336L355 337L354 336M155 337L156 338L155 337M356 337L357 338L356 337M153 338L154 339L153 338M358 338L359 339L358 338M151 339L152 340L151 339M360 339L361 340L360 339M149 340L150 341L149 340M147 341L148 342L147 341M364 341L365 342L364 341M14 342L15 343L14 342M145 342L146 343L145 342M366 342L367 343L366 342M143 343L144 344L143 343M368 343L369 344L368 343M141 344L142 345L141 344M370 344L371 345L370 344M15 345L16 346L15 345M139.667 345.333L140.333 345.667L139.667 345.333M138 346L139 347L138 346M136 347L137 348L136 347M375 347L376 348L375 347M134 348L135 349L134 348M377 348L378 349L377 348M133 349L134 350L133 349M17 350L18 351L17 350M131 350L132 351L131 350M380 350L381 351L380 350M129 351L130 352L129 351M128 352L129 353L128 352M383 352L384 353L383 352M126 353L127 354L126 353M385 353L386 354L385 353M125 354L126 355L125 354M19 355L20 356L19 355M123 355L124 356L123 355M388 355L389 356L388 355M122 356L123 357L122 356M20 357L21 358L20 357M120 357L121 358L120 357M119 358L120 359L119 358M392 358L393 359L392 358M117 359L118 360L117 359M116 360L117 361L116 360M395 360L396 361L395 360M115 361L116 362L115 361M113 362L114 363L113 362M112 363L113 364L112 363M399 363L400 364L399 363M23 364L24 365L23 364M111 364L112 365L111 364M109 365L110 366L109 365M108 366L109 367L108 366M403 366L404 367L403 366M107 367L108 368L107 367M404 367L405 368L404 367M106 368L107 369L106 368M104 369L105 370L104 369M26 370L27 371L26 370M103 370L104 371L103 370M408 370L409 371L408 370M102 371L103 372L102 371M409 371L410 372L409 371M101 372L102 373L101 372M100 373L101 374L100 373M28 374L29 375L28 374M97 375L98 376L97 375M96 376L97 377L96 376M95 377L96 378L95 377M416 377L417 378L416 377M30 378L31 379L30 378M94 378L95 379L94 378M417 378L418 379L417 378M93 379L94 380L93 379M418 379L419 380L418 379M92 380L93 381L92 380M91 381L92 382L91 381M90 382L91 383L90 382M33 383L34 384L33 383M89 383L90 384L89 383M88 384L89 385L88 384M87 385L88 386L87 385M86 386L87 387L86 386M85 387L86 388L85 387M84 388L85 389L84 388M83 389L84 390L83 389M37 390L38 391L37 390M82 390L83 391L82 390M81 391L82 392L81 391M80 392L81 393L80 392M39 393L40 394L39 393M79 393L80 394L79 393M78 394L79 395L78 394M77 395L78 396L77 395M76 396L77 397L76 396M75 397L76 398L75 397M74 398L75 399L74 398M43 399L44 400L43 399M73 399L74 400L73 399M72 401L73 402L72 401M71 402L72 403L71 402M70 403L71 404L70 403M69 404L70 405L69 404M68 405L69 406L68 405M445 406L446 407L445 406M67 407L68 408L67 407M446 407L447 408L446 407M66 408L67 409L66 408M447 408L448 409L447 408M65 409L66 410L65 409M448 409L449 410L448 409M51 410L52 411L51 410M64 410L65 411L64 410M449 410L450 411L449 410M450 411L451 412L450 411M63 412L64 413L63 412M451 412L452 413L451 412M62 413L63 414L62 413M452 413L453 414L452 413M54 414L55 415L54 414M61 414L62 415L61 414M453 414L454 415L453 414M55 415L56 416L55 415M60 416L61 417L60 416M59 417L60 418L59 417M58.3333 418.667L58.6667 419.333L58.3333 418.667M454 418L455 419L454 418M453 419L454 420L453 419M59 420L60 421L59 420M452 420L453 421L452 420M451 421L452 422L451 421M448 425L449 426L448 425M64 426L65 427L64 426M447 426L448 427L447 426M65 427L66 428L65 427M446 427L447 428L446 427M66 428L67 429L66 428M445 428L446 429L445 428M444 429L445 430L444 429M443 430L444 431L443 430M430 443L431 444L430 443M429 444L430 445L429 444M428 445L429 446L428 445M427 446L428 447L427 446M426 447L427 448L426 447M425 448L426 449L425 448M420 452L421 453L420 452M92 453L93 454L92 453M419 453L420 454L419 453M410 460L411 461L410 460M409 461L410 462L409 461M406 463L407 464L406 463M399 468L400 469L399 468M396 470L397 471L396 470M388 475L389 476L388 475M383 478L384 479L383 478M381 479L382 480L381 479M379 480L380 481L379 480M366 487L367 488L366 487M364 488L365 489L364 488M359 490L360 491L359 490M154 491L155 492L154 491M357 491L358 492L357 491M355 492L356 493L355 492M352 493L353 494L352 493M350 494L351 495L350 494M164 495L165 496L164 495M347 495L348 496L347 495M344.667 496.333L345.333 496.667L344.667 496.333M342 497L343 498L342 497M172 498L173 499L172 498M339 498L340 499L339 498M336 499L337 500L336 499M178 500L179 501L178 500M333 500L334 501L333 500M329.667 501.333L330.333 501.667L329.667 501.333M185 502L186 503L185 502M326 502L327 503L326 502M322.667 503.333L323.333 503.667L322.667 503.333M318.667 504.333L319.333 504.667L318.667 504.333M314.667 505.333L315.333 505.667L314.667 505.333M201 506L202 507L201 506M310 506L311 507L310 506M305.667 507.333L306.333 507.667L305.667 507.333M211 508L212 509L211 508M299.667 508.333L300.333 508.667L299.667 508.333z"/>
<path style="fill:#5b97d7; stroke:none;" d="M301 508L302 509L301 508z"/>
<path style="fill:#01ffff; stroke:none;" d="M216 509L217 510L216 509z"/>
<path style="fill:#87b4e7; stroke:none;" d="M217.667 509.333L218.333 509.667L217.667 509.333M293.667 509.333L294.333 509.667L293.667 509.333M224.667 510.333L225.333 510.667L224.667 510.333M285 510L285 511L288 511L285 510z"/>
<path style="fill:#5b97d7; stroke:none;" d="M233 511L234 512L233 511z"/>
<path style="fill:#87b4e7; stroke:none;" d="M234 511L234 512L237 512L234 511M274 511L274 512L278 512L274 511z"/>
</svg>
