<?xml version="1.0" standalone="yes"?>
<svg xmlns="http://www.w3.org/2000/svg" width="512" height="512">
<path style="fill:#020202; stroke:none;" d="M0 0L0 512L512 512L512 0L0 0z"/>
<path style="fill:#6f7787; stroke:none;" d="M196.667 20.3333L197.333 20.6667L196.667 20.3333z"/>
<path style="fill:#a0c3f3; stroke:none;" d="M198 20L199 21L198 20z"/>
<path style="fill:#fbeae6; stroke:none;" d="M119 116L119 207C119 228.048 120.139 249.311 115.576 270C110.63 292.426 100.987 313.443 96.2106 336C92.9979 351.173 94.7182 368.352 90.49 383C86.0881 398.25 68.6357 408.284 62.8542 423C60.3996 429.248 62 438.367 62 445L62 492L157 492C170.488 492 187.934 494.973 200.999 491.682C206.373 490.328 210.192 484.005 213.576 480C221.442 470.69 229.704 456.325 240.015 449.742C247.197 445.156 259.712 446.024 268 444.119C287.237 439.697 305.84 434.016 323 424L323 423L227 423C211.204 423 193.663 425.566 180 415.956C157.798 400.341 163 371.609 163 348C163 339.491 160.397 323.199 172.715 321.988C182.682 321.009 183.997 332.991 184 340L184 378C184 385.062 183.525 392.358 189.213 397.61C198.533 406.215 220.191 402 232 402L340 402C351.124 402 371.914 405.997 380.957 398.606C388.954 392.069 388 382.267 388 373L388 314L388 109L388 54C388 46.1087 389.666 36.1116 385.467 29.0394C376.103 13.2704 340.62 20 325 20C324.659 61.1961 268.993 77.0333 250.493 38C247.71 32.127 247.004 26.4096 247 20C232.157 20 202.058 14.2952 190.094 24.3943C180.065 32.8609 184 52.2584 184 64L184 174L184 235C183.997 241.962 183.238 252.904 174 253.667C168.813 254.095 164.494 249.761 163.394 244.999C160.926 234.311 163 220.961 163 210C163 172.424 165.842 125.694 119 116z"/>
<path style="fill:#6f7787; stroke:none;" d="M267 20C267.575 46.9766 303.834 46.7358 305 20L267 20M324 20L324 26L325 26L324 20z"/>
<path style="fill:#a0c3f3; stroke:none;" d="M372.667 20.3333L373.333 20.6667L372.667 20.3333z"/>
<path style="fill:#6f7787; stroke:none;" d="M374 20L375 21L374 20M194 21L195 22L194 21z"/>
<path style="fill:#a0c3f3; stroke:none;" d="M376 21L377 22L376 21z"/>
<path style="fill:#6f7787; stroke:none;" d="M377 21L378 22L377 21M192 22L193 23L192 22M379 22L380 23L379 22M190 23L191 24L190 23z"/>
<path style="fill:#a0c3f3; stroke:none;" d="M380 23L381 24L380 23z"/>
<path style="fill:#6f7787; stroke:none;" d="M189 24L190 25L189 24M247 24L247 28L248 28L247 24z"/>
<path style="fill:#a0c3f3; stroke:none;" d="M381 24L382 25L381 24z"/>
<path style="fill:#6f7787; stroke:none;" d="M188 25L189 26L188 25M187 26L188 27L187 26z"/>
<path style="fill:#a0c3f3; stroke:none;" d="M324.333 26.6667L324.667 27.3333L324.333 26.6667M384 27L385 28L384 27M186 28L187 29L186 28M247.333 28.6667L247.667 29.3333L247.333 28.6667z"/>
<path style="fill:#6f7787; stroke:none;" d="M385 28L386 29L385 28M185 29L186 30L185 29M323.333 30.6667L323.667 31.3333L323.333 30.6667M386 30L387 31L386 30M184 31L185 32L184 31M248.333 31.6667L248.667 32.3333L248.333 31.6667z"/>
<path style="fill:#a0c3f3; stroke:none;" d="M184 32L185 33L184 32M323 32L324 33L323 32z"/>
<path style="fill:#6f7787; stroke:none;" d="M387.333 32.6667L387.667 33.3333L387.333 32.6667z"/>
<path style="fill:#a0c3f3; stroke:none;" d="M248 33L249 34L248 33z"/>
<path style="fill:#6f7787; stroke:none;" d="M183 34L183 37L184 37L183 34M322 34L323 35L322 34M249 35L250 36L249 35z"/>
<path style="fill:#a0c3f3; stroke:none;" d="M322 35L323 36L322 35M183 37L183 245L184 245L184 99L184 57L183 37z"/>
<path style="fill:#6f7787; stroke:none;" d="M250 37L251 38L250 37M321 37L322 38L321 37z"/>
<path style="fill:#a0c3f3; stroke:none;" d="M250 38L251 39L250 38z"/>
<path style="fill:#6f7787; stroke:none;" d="M388 38L388 385L389 385L389 140L389 69L388 38M251 39L252 40L251 39M320 39L321 40L320 39z"/>
<path style="fill:#a0c3f3; stroke:none;" d="M251 40L252 41L251 40z"/>
<path style="fill:#6f7787; stroke:none;" d="M252 41L253 42L252 41M319 41L320 42L319 41M253 43L254 44L253 43z"/>
<path style="fill:#a0c3f3; stroke:none;" d="M318 43L319 44L318 43z"/>
<path style="fill:#6f7787; stroke:none;" d="M254 44L255 45L254 44M317 44L318 45L317 44M316 45L317 46L316 45z"/>
<path style="fill:#a0c3f3; stroke:none;" d="M255 46L256 47L255 46z"/>
<path style="fill:#6f7787; stroke:none;" d="M256 47L257 48L256 47z"/>
<path style="fill:#a0c3f3; stroke:none;" d="M315 47L316 48L315 47z"/>
<path style="fill:#6f7787; stroke:none;" d="M257 48L258 49L257 48z"/>
<path style="fill:#a0c3f3; stroke:none;" d="M314 48L315 49L314 48z"/>
<path style="fill:#6f7787; stroke:none;" d="M258 49L259 50L258 49z"/>
<path style="fill:#a0c3f3; stroke:none;" d="M313 49L314 50L313 49z"/>
<path style="fill:#6f7787; stroke:none;" d="M259 50L260 51L259 50z"/>
<path style="fill:#a0c3f3; stroke:none;" d="M312 50L313 51L312 50z"/>
<path style="fill:#6f7787; stroke:none;" d="M260 51L261 52L260 51z"/>
<path style="fill:#a0c3f3; stroke:none;" d="M311 51L312 52L311 51M261 52L262 53L261 52z"/>
<path style="fill:#6f7787; stroke:none;" d="M308 53L309 54L308 53M264 54L265 55L264 54z"/>
<path style="fill:#a0c3f3; stroke:none;" d="M307 54L308 55L307 54z"/>
<path style="fill:#6f7787; stroke:none;" d="M266 55L267 56L266 55M305 55L306 56L305 55z"/>
<path style="fill:#a0c3f3; stroke:none;" d="M267 56L268 57L267 56z"/>
<path style="fill:#6f7787; stroke:none;" d="M303 56L304 57L303 56z"/>
<path style="fill:#a0c3f3; stroke:none;" d="M304 56L305 57L304 56M269 57L270 58L269 57z"/>
<path style="fill:#6f7787; stroke:none;" d="M270 57L271 58L270 57M301 57L302 58L301 57M272 58L273 59L272 58M299 58L300 59L299 58z"/>
<path style="fill:#a0c3f3; stroke:none;" d="M274 59L275 60L274 59z"/>
<path style="fill:#6f7787; stroke:none;" d="M275.667 59.3333L276.333 59.6667L275.667 59.3333M295.667 59.3333L296.333 59.6667L295.667 59.3333z"/>
<path style="fill:#a0c3f3; stroke:none;" d="M278 60L279 61L278 60z"/>
<path style="fill:#6f7787; stroke:none;" d="M279 60L279 61L282 61L279 60M289 60L289 61L292 61L289 60z"/>
<path style="fill:#a0c3f3; stroke:none;" d="M292.667 60.3333L293.333 60.6667L292.667 60.3333M281 88L282 89L281 88z"/>
<path style="fill:#6f7787; stroke:none;" d="M282 88L282 89L290 89L282 88z"/>
<path style="fill:#a0c3f3; stroke:none;" d="M290 88L291 89L290 88M276 89L277 90L276 89z"/>
<path style="fill:#6f7787; stroke:none;" d="M277.667 89.3333L278.333 89.6667L277.667 89.3333z"/>
<path style="fill:#020202; stroke:none;" d="M253 129C244.697 129 226.755 125.636 220.228 131.434C214.872 136.191 215.692 148.367 215.075 155C213.214 175.019 210.831 194.996 208.831 215C208.143 221.877 204.4 233.001 209.434 238.852C213.742 243.86 223.087 242 229 242L282 242L337 242C343.402 242 354.171 244.041 359.891 240.821C364.493 238.231 364.095 232.563 363.985 228C363.687 215.644 361.076 203.315 360.086 191C358.882 176.026 357.404 160.891 355.424 146C354.71 140.624 355.192 133.518 349.811 130.318C341.923 125.627 326.088 133.882 319.603 127.397C316.751 124.544 318.282 118.636 317.674 115C316.624 108.71 313.4 102.586 308.907 98.0934C294.645 83.832 270.185 86.7125 258.8 103C253.623 110.406 253.006 120.25 253 129z"/>
<path style="fill:#6f7787; stroke:none;" d="M293.667 89.3333L294.333 89.6667L293.667 89.3333M274 90L275 91L274 90M297 90L298 91L297 90z"/>
<path style="fill:#a0c3f3; stroke:none;" d="M271 91L272 92L271 91z"/>
<path style="fill:#6f7787; stroke:none;" d="M272 91L273 92L272 91M299 91L300 92L299 91z"/>
<path style="fill:#a0c3f3; stroke:none;" d="M269 92L270 93L269 92z"/>
<path style="fill:#6f7787; stroke:none;" d="M270 92L271 93L270 92M301 92L302 93L301 92M268 93L269 94L268 93M303 93L304 94L303 93z"/>
<path style="fill:#a0c3f3; stroke:none;" d="M266 94L267 95L266 94z"/>
<path style="fill:#6f7787; stroke:none;" d="M304 94L305 95L304 94M265 95L266 96L265 95z"/>
<path style="fill:#a0c3f3; stroke:none;" d="M306 95L307 96L306 95z"/>
<path style="fill:#6f7787; stroke:none;" d="M264 96L265 97L264 96z"/>
<path style="fill:#a0c3f3; stroke:none;" d="M307 96L308 97L307 96z"/>
<path style="fill:#6f7787; stroke:none;" d="M263 97L264 98L263 97M308 97L309 98L308 97M262 98L263 99L262 98M309 98L310 99L309 98M261 99L262 100L261 99M310 99L311 100L310 99M260 100L261 101L260 100z"/>
<path style="fill:#a0c3f3; stroke:none;" d="M311 100L312 101L311 100M259 101L260 102L259 101z"/>
<path style="fill:#6f7787; stroke:none;" d="M312 102L313 103L312 102M258 103L259 104L258 103z"/>
<path style="fill:#a0c3f3; stroke:none;" d="M313 103L314 104L313 103M257 104L258 105L257 104z"/>
<path style="fill:#6f7787; stroke:none;" d="M314 105L315 106L314 105z"/>
<path style="fill:#a0c3f3; stroke:none;" d="M256 106L257 107L256 106z"/>
<path style="fill:#6f7787; stroke:none;" d="M315 107L316 108L315 107z"/>
<path style="fill:#a0c3f3; stroke:none;" d="M255 108L256 109L255 108z"/>
<path style="fill:#6f7787; stroke:none;" d="M283 108L283 109L289 109L283 108M255 109L256 110L255 109M280 109L281 110L280 109z"/>
<path style="fill:#a0c3f3; stroke:none;" d="M281 109L282 110L281 109z"/>
<path style="fill:#fbeae6; stroke:none;" d="M274 128L298 128C298 123.043 298.704 117.332 295.347 113.214C290.302 107.023 278.974 107.892 275.179 115.043C273.204 118.766 274 123.925 274 128z"/>
<path style="fill:#a0c3f3; stroke:none;" d="M290 109L291 110L290 109z"/>
<path style="fill:#6f7787; stroke:none;" d="M316.333 109.667L316.667 110.333L316.333 109.667z"/>
<path style="fill:#a0c3f3; stroke:none;" d="M279 110L280 111L279 110M292 110L293 111L292 110M254 111L255 112L254 111z"/>
<path style="fill:#6f7787; stroke:none;" d="M277 111L278 112L277 111M254 112L255 113L254 112M276 112L277 113L276 112z"/>
<path style="fill:#a0c3f3; stroke:none;" d="M317 112L318 113L317 112z"/>
<path style="fill:#6f7787; stroke:none;" d="M317 113L318 114L317 113z"/>
<path style="fill:#a0c3f3; stroke:none;" d="M296 114L297 115L296 114M253 115L254 116L253 115z"/>
<path style="fill:#6f7787; stroke:none;" d="M274 115L275 116L274 115M118 116L118 247L119 247L119 156C119 144.58 122.408 126.504 118 116z"/>
<path style="fill:#a0c3f3; stroke:none;" d="M121 116L122 117L121 116z"/>
<path style="fill:#6f7787; stroke:none;" d="M122.667 116.333L123.333 116.667L122.667 116.333M253 116L253 120L254 120L253 116z"/>
<path style="fill:#a0c3f3; stroke:none;" d="M297 116L298 117L297 116M318.333 116.667L318.667 117.333L318.333 116.667M125 117L126 118L125 117z"/>
<path style="fill:#6f7787; stroke:none;" d="M126 117L127 118L126 117z"/>
<path style="fill:#a0c3f3; stroke:none;" d="M128 118L129 119L128 118z"/>
<path style="fill:#6f7787; stroke:none;" d="M129 118L130 119L129 118M273 118L274 119L273 118M318 118L318 128L319 128L318 118M131 119L132 120L131 119z"/>
<path style="fill:#a0c3f3; stroke:none;" d="M273 119L273 128L274 128L273 119z"/>
<path style="fill:#6f7787; stroke:none;" d="M298 119L298 128L273 128L273 129L299 129L298 119M133 120L134 121L133 120M135 121L136 122L135 121z"/>
<path style="fill:#a0c3f3; stroke:none;" d="M136 122L137 123L136 122z"/>
<path style="fill:#6f7787; stroke:none;" d="M137 122L138 123L137 122M138 123L139 124L138 123z"/>
<path style="fill:#a0c3f3; stroke:none;" d="M139 124L140 125L139 124z"/>
<path style="fill:#6f7787; stroke:none;" d="M141 125L142 126L141 125z"/>
<path style="fill:#eb7c7c; stroke:none;" d="M142 126L143 127L142 126z"/>
<path style="fill:#a0c3f3; stroke:none;" d="M143 127L144 128L143 127M224 128L225 129L224 128z"/>
<path style="fill:#6f7787; stroke:none;" d="M225 128L225 129L253 129L225 128M319 128L319 129L347 129L319 128M222 129L223 130L222 129z"/>
<path style="fill:#a0c3f3; stroke:none;" d="M349 129L350 130L349 129M220 130L221 131L220 130z"/>
<path style="fill:#6f7787; stroke:none;" d="M350 130L351 131L350 130M219 131L220 132L219 131z"/>
<path style="fill:#a0c3f3; stroke:none;" d="M148 132L149 133L148 132M218 132L219 133L218 132z"/>
<path style="fill:#6f7787; stroke:none;" d="M352 132L353 133L352 132M420 132L420 133L433 133L420 132z"/>
<path style="fill:#eb7c7c; stroke:none;" d="M149 133L150 134L149 133z"/>
<path style="fill:#6f7787; stroke:none;" d="M353 133L354 134L353 133M416 133L417 134L416 133z"/>
<path style="fill:#eb7c7c; stroke:none;" d="M417 133L418 134L417 133z"/>
<path style="fill:#fbeae6; stroke:none;" d="M418 133.653C407.434 136.971 405.183 158.48 410.742 166.957C415.591 174.349 428.307 174.434 436 172.211C448.684 168.545 454.928 151.8 446.581 141.015C440.437 133.077 427.399 130.701 418 133.653z"/>
<path style="fill:#a0c3f3; stroke:none;" d="M435 133L436 134L435 133z"/>
<path style="fill:#6f7787; stroke:none;" d="M436 133L437 134L436 133M150 134L151 135L150 134M217 134L218 135L217 134M414 134L415 135L414 134z"/>
<path style="fill:#a0c3f3; stroke:none;" d="M415 134L416 135L415 134M438 134L439 135L438 134z"/>
<path style="fill:#6f7787; stroke:none;" d="M439 134L440 135L439 134M151 135L152 136L151 135z"/>
<path style="fill:#a0c3f3; stroke:none;" d="M354 135L355 136L354 135z"/>
<path style="fill:#6f7787; stroke:none;" d="M413 135L414 136L413 135z"/>
<path style="fill:#a0c3f3; stroke:none;" d="M440 135L441 136L440 135z"/>
<path style="fill:#6f7787; stroke:none;" d="M354.333 136.667L354.667 137.333L354.333 136.667z"/>
<path style="fill:#eb7c7c; stroke:none;" d="M412 136L413 137L412 136z"/>
<path style="fill:#6f7787; stroke:none;" d="M442 136L443 137L442 136z"/>
<path style="fill:#a0c3f3; stroke:none;" d="M152 137L153 138L152 137M216 137L217 138L216 137z"/>
<path style="fill:#6f7787; stroke:none;" d="M411 137L412 138L411 137z"/>
<path style="fill:#eb7c7c; stroke:none;" d="M443 137L444 138L443 137z"/>
<path style="fill:#6f7787; stroke:none;" d="M153 138L154 139L153 138M216 138L216 142L217 142L216 138M410 138L411 139L410 138z"/>
<path style="fill:#a0c3f3; stroke:none;" d="M444 138L445 139L444 138z"/>
<path style="fill:#eb7c7c; stroke:none;" d="M445 139L446 140L445 139z"/>
<path style="fill:#6f7787; stroke:none;" d="M154 140L155 141L154 140M409 140L410 141L409 140M446 140L447 141L446 140M447 141L448 142L447 141z"/>
<path style="fill:#a0c3f3; stroke:none;" d="M155 142L156 143L155 142M355.333 142.667L355.667 143.333L355.333 142.667z"/>
<path style="fill:#6f7787; stroke:none;" d="M156 143L157 144L156 143M408.333 143.667L408.667 144.333L408.333 143.667M448 143L449 144L448 143z"/>
<path style="fill:#a0c3f3; stroke:none;" d="M156 144L157 145L156 144z"/>
<path style="fill:#6f7787; stroke:none;" d="M355 144L355 147L356 147L355 144M157 145L158 146L157 145z"/>
<path style="fill:#eb7c7c; stroke:none;" d="M408 145L409 146L408 145z"/>
<path style="fill:#6f7787; stroke:none;" d="M449 145L450 146L449 145z"/>
<path style="fill:#a0c3f3; stroke:none;" d="M157 146L158 147L157 146M215.333 146.667L215.667 147.333L215.333 146.667M408 146L408 160L409 160L408 146M449 146L450 147L449 146z"/>
<path style="fill:#6f7787; stroke:none;" d="M158 148L159 149L158 148M215 148L215 152L216 152L215 148M235 153L236 153L236 149L253 149C247.671 146.764 236.164 146.027 235 153M273 148L273 149L298 149L298 161C305.154 143.95 283.12 148 273 148M318 161L319 161L319 149L336 149C323.651 143.818 318 149.407 318 161M450.333 148.667L450.667 149.333L450.333 148.667z"/>
<path style="fill:#a0c3f3; stroke:none;" d="M236 149L228 222L343 222L336 149L319 149C319 154.058 319.629 159.624 316.347 163.892C311.182 170.608 302.092 168.505 299.009 160.996C297.492 157.3 298 152.909 298 149L273 149C273 153.075 273.774 158.132 272.142 161.96C268.771 169.868 259.184 169.728 254.742 162.957C252.156 159.013 253 153.49 253 149L236 149z"/>
<path style="fill:#6f7787; stroke:none;" d="M159 150L160 151L159 150z"/>
<path style="fill:#eb7c7c; stroke:none;" d="M450 150L451 151L450 150M159 151L160 152L159 151z"/>
<path style="fill:#a0c3f3; stroke:none;" d="M356.333 151.667L356.667 152.333L356.333 151.667M450 151L450 155L451 155L450 151z"/>
<path style="fill:#6f7787; stroke:none;" d="M160.333 153.667L160.667 154.333L160.333 153.667M356 153L356 157L357 157L356 153M336 154L336 158L337 158L336 154z"/>
<path style="fill:#a0c3f3; stroke:none;" d="M214.333 155.667L214.667 156.333L214.333 155.667z"/>
<path style="fill:#eb7c7c; stroke:none;" d="M450 155L451 156L450 155z"/>
<path style="fill:#6f7787; stroke:none;" d="M450.333 156.667L450.667 157.333L450.333 156.667M161 157L162 158L161 157M214 157L214 161L215 161L214 157z"/>
<path style="fill:#eb7c7c; stroke:none;" d="M161 158L162 159L161 158z"/>
<path style="fill:#6f7787; stroke:none;" d="M234 158L234 162L235 162L234 158z"/>
<path style="fill:#a0c3f3; stroke:none;" d="M161 159L162 160L161 159z"/>
<path style="fill:#6f7787; stroke:none;" d="M253 159L253 162L254 162L253 159z"/>
<path style="fill:#a0c3f3; stroke:none;" d="M449 159L450 160L449 159z"/>
<path style="fill:#eb7c7c; stroke:none;" d="M408 160L409 161L408 160z"/>
<path style="fill:#6f7787; stroke:none;" d="M449 160L450 161L449 160M272.333 161.667L272.667 162.333L272.333 161.667z"/>
<path style="fill:#a0c3f3; stroke:none;" d="M357.333 161.667L357.667 162.333L357.333 161.667z"/>
<path style="fill:#6f7787; stroke:none;" d="M408.333 161.667L408.667 162.333L408.333 161.667M162.333 162.667L162.667 163.333L162.333 162.667M299 162L300 163L299 162M317 162L318 163L317 162M448 162L449 163L448 162M254 163L255 164L254 163M337 163L337 168L338 168L337 163M357 163L357 166L358 166L357 163z"/>
<path style="fill:#eb7c7c; stroke:none;" d="M162 164L163 165L162 164z"/>
<path style="fill:#6f7787; stroke:none;" d="M255 164L256 165L255 164M300 164L301 165L300 164M316 164L317 165L316 164M447 164L448 165L447 164z"/>
<path style="fill:#a0c3f3; stroke:none;" d="M162 165L163 166L162 165M213.333 165.667L213.667 166.333L213.333 165.667z"/>
<path style="fill:#6f7787; stroke:none;" d="M270 165L271 166L270 165M301 165L302 166L301 165M315 165L316 166L315 165M409 165L410 166L409 165M446 165L447 166L446 165M257 166L258 167L257 166M302 166L303 167L302 166M314 166L315 167L314 166z"/>
<path style="fill:#eb7c7c; stroke:none;" d="M445 166L446 167L445 166z"/>
<path style="fill:#6f7787; stroke:none;" d="M213 167L213 170L214 170L213 167M233 167L233 172L234 172L233 167M259 167L260 168L259 167M267 167L268 168L267 167M304 167L305 168L304 167M312 167L313 168L312 167M410 167L411 168L410 167z"/>
<path style="fill:#a0c3f3; stroke:none;" d="M444 167L445 168L444 167z"/>
<path style="fill:#6f7787; stroke:none;" d="M261 168L261 169L265 169L261 168M307 168L307 169L310 169L307 168M411 168L412 169L411 168M443 168L444 169L443 168z"/>
<path style="fill:#eb7c7c; stroke:none;" d="M412 169L413 170L412 169z"/>
<path style="fill:#6f7787; stroke:none;" d="M442 169L443 170L442 169z"/>
<path style="fill:#a0c3f3; stroke:none;" d="M358.333 170.667L358.667 171.333L358.333 170.667z"/>
<path style="fill:#6f7787; stroke:none;" d="M413 170L414 171L413 170z"/>
<path style="fill:#eb7c7c; stroke:none;" d="M440 170L441 171L440 170z"/>
<path style="fill:#a0c3f3; stroke:none;" d="M415 171L416 172L415 171M438 171L439 172L438 171z"/>
<path style="fill:#6f7787; stroke:none;" d="M163 172L163 246L164 246L164 195L163 172M358 172L358 176L359 176L358 172M416.667 172.333L417.333 172.667L416.667 172.333z"/>
<path style="fill:#a0c3f3; stroke:none;" d="M435 172L436 173L435 172z"/>
<path style="fill:#6f7787; stroke:none;" d="M436 172L437 173L436 172M338 173L338 177L339 177L338 173M420 173L420 174L433 174L420 173z"/>
<path style="fill:#a0c3f3; stroke:none;" d="M212.333 174.667L212.667 175.333L212.333 174.667z"/>
<path style="fill:#6f7787; stroke:none;" d="M212 176L212 180L213 180L212 176M232 177L232 181L233 181L232 177z"/>
<path style="fill:#a0c3f3; stroke:none;" d="M359.333 179.667L359.667 180.333L359.333 179.667z"/>
<path style="fill:#6f7787; stroke:none;" d="M359 181L359 185L360 185L359 181M339 182L339 186L340 186L339 182z"/>
<path style="fill:#a0c3f3; stroke:none;" d="M211.333 184.667L211.667 185.333L211.333 184.667z"/>
<path style="fill:#6f7787; stroke:none;" d="M211 186L211 189L212 189L211 186M231 186L231 191L232 191L231 186z"/>
<path style="fill:#a0c3f3; stroke:none;" d="M360.333 189.667L360.667 190.333L360.333 189.667z"/>
<path style="fill:#6f7787; stroke:none;" d="M340 191L340 196L341 196L340 191M360 191L360 195L361 195L360 191z"/>
<path style="fill:#a0c3f3; stroke:none;" d="M210.333 193.667L210.667 194.333L210.333 193.667z"/>
<path style="fill:#6f7787; stroke:none;" d="M419 193L419 194L434 194L419 193M416 194L417 195L416 194z"/>
<path style="fill:#a0c3f3; stroke:none;" d="M417 194L418 195L417 194z"/>
<path style="fill:#fbeae6; stroke:none;" d="M418 194.573C406.806 197.789 405.357 220.701 411.653 228.892C416.722 235.486 428.723 235.078 436 233.072C448.709 229.568 454.84 212.722 446.581 202.015C440.273 193.837 427.688 191.789 418 194.573z"/>
<path style="fill:#6f7787; stroke:none;" d="M436.667 194.333L437.333 194.667L436.667 194.333M210 195L210 199L211 199L210 195M414 195L415 196L414 195M439 195L440 196L439 195M230 196L230 200L231 200L230 196z"/>
<path style="fill:#eb7c7c; stroke:none;" d="M413 196L414 197L413 196z"/>
<path style="fill:#a0c3f3; stroke:none;" d="M440 196L441 197L440 196z"/>
<path style="fill:#6f7787; stroke:none;" d="M441 196L442 197L441 196z"/>
<path style="fill:#a0c3f3; stroke:none;" d="M412 197L413 198L412 197z"/>
<path style="fill:#6f7787; stroke:none;" d="M442 197L443 198L442 197z"/>
<path style="fill:#a0c3f3; stroke:none;" d="M361.333 198.667L361.667 199.333L361.333 198.667z"/>
<path style="fill:#eb7c7c; stroke:none;" d="M411 198L412 199L411 198z"/>
<path style="fill:#a0c3f3; stroke:none;" d="M443 198L444 199L443 198z"/>
<path style="fill:#6f7787; stroke:none;" d="M410 199L411 200L410 199z"/>
<path style="fill:#a0c3f3; stroke:none;" d="M444 199L445 200L444 199z"/>
<path style="fill:#6f7787; stroke:none;" d="M361 200L361 204L362 204L361 200z"/>
<path style="fill:#a0c3f3; stroke:none;" d="M445 200L446 201L445 200z"/>
<path style="fill:#6f7787; stroke:none;" d="M341 201L341 205L342 205L341 201M409 201L410 202L409 201z"/>
<path style="fill:#eb7c7c; stroke:none;" d="M446 201L447 202L446 201z"/>
<path style="fill:#a0c3f3; stroke:none;" d="M209.333 202.667L209.667 203.333L209.333 202.667z"/>
<path style="fill:#6f7787; stroke:none;" d="M447 202L448 203L447 202M209 204L209 208L210 208L209 204M408.333 204.667L408.667 205.333L408.333 204.667M448 204L449 205L448 204M229 205L229 209L230 209L229 205z"/>
<path style="fill:#eb7c7c; stroke:none;" d="M408 206L409 207L408 206z"/>
<path style="fill:#6f7787; stroke:none;" d="M449 206L450 207L449 206z"/>
<path style="fill:#a0c3f3; stroke:none;" d="M408 207L408 221L409 221L408 207M449 207L450 208L449 207M362.333 208.667L362.667 209.333L362.333 208.667z"/>
<path style="fill:#6f7787; stroke:none;" d="M450.333 209.667L450.667 210.333L450.333 209.667M342 210L342 215L343 215L342 210M362 210L362 213L363 213L362 210z"/>
<path style="fill:#eb7c7c; stroke:none;" d="M450 211L451 212L450 211z"/>
<path style="fill:#a0c3f3; stroke:none;" d="M208.333 212.667L208.667 213.333L208.333 212.667M450 212L450 216L451 216L450 212z"/>
<path style="fill:#6f7787; stroke:none;" d="M208 214L208 218L209 218L208 214M228 214L228 219L229 219L228 214z"/>
<path style="fill:#eb7c7c; stroke:none;" d="M450 216L451 217L450 216z"/>
<path style="fill:#a0c3f3; stroke:none;" d="M363.333 217.667L363.667 218.333L363.333 217.667z"/>
<path style="fill:#6f7787; stroke:none;" d="M450.333 217.667L450.667 218.333L450.333 217.667M363 219L363 223L364 223L363 219M343 220C336.188 225.161 319.412 222 311 222L228 222L228 223L316 223C320.116 223 344.702 224.514 343 220z"/>
<path style="fill:#eb7c7c; stroke:none;" d="M449 220L450 221L449 220z"/>
<path style="fill:#a0c3f3; stroke:none;" d="M207.333 221.667L207.667 222.333L207.333 221.667z"/>
<path style="fill:#eb7c7c; stroke:none;" d="M408 221L409 222L408 221z"/>
<path style="fill:#6f7787; stroke:none;" d="M449 221L450 222L449 221M408.333 222.667L408.667 223.333L408.333 222.667M207 223L207 227L208 227L207 223M448 223L449 224L448 223z"/>
<path style="fill:#a0c3f3; stroke:none;" d="M447 224L448 225L447 224M409 225L410 226L409 225z"/>
<path style="fill:#6f7787; stroke:none;" d="M409 226L410 227L409 226M446 226L447 227L446 226z"/>
<path style="fill:#a0c3f3; stroke:none;" d="M364.333 227.667L364.667 228.333L364.333 227.667M410 227L411 228L410 227z"/>
<path style="fill:#6f7787; stroke:none;" d="M445 227L446 228L445 227M410 228L411 229L410 228M444 228L445 229L444 228M364 229L364 235L365 235L364 229M411 229L412 230L411 229M443 229L444 230L443 229M412 230L413 231L412 230M442 230L443 231L442 230z"/>
<path style="fill:#a0c3f3; stroke:none;" d="M206 231L206 234L207 234L206 231z"/>
<path style="fill:#6f7787; stroke:none;" d="M413 231L414 232L413 231M440 231L441 232L440 231M415 232L416 233L415 232M438 232L439 233L438 232M417 233L418 234L417 233z"/>
<path style="fill:#a0c3f3; stroke:none;" d="M418 233L419 234L418 233M434 233L435 234L434 233z"/>
<path style="fill:#6f7787; stroke:none;" d="M435.667 233.333L436.333 233.667L435.667 233.333M422 234L422 235L431 235L422 234z"/>
<path style="fill:#a0c3f3; stroke:none;" d="M364 235L365 236L364 235z"/>
<path style="fill:#6f7787; stroke:none;" d="M207 236L208 237L207 236M363 237L364 238L363 237M208 238L209 239L208 238M209 239L210 240L209 239z"/>
<path style="fill:#a0c3f3; stroke:none;" d="M362 239L363 240L362 239z"/>
<path style="fill:#6f7787; stroke:none;" d="M210 240L211 241L210 240z"/>
<path style="fill:#a0c3f3; stroke:none;" d="M211 241L212 242L211 241z"/>
<path style="fill:#6f7787; stroke:none;" d="M359 241L360 242L359 241z"/>
<path style="fill:#a0c3f3; stroke:none;" d="M213 242L214 243L213 242z"/>
<path style="fill:#6f7787; stroke:none;" d="M214 242L214 243L357 243C345.782 238.293 326.206 242 314 242L214 242z"/>
<path style="fill:#a0c3f3; stroke:none;" d="M357 242L358 243L357 242z"/>
<path style="fill:#eb7c7c; stroke:none;" d="M163 246L164 247L163 246M118 247L119 248L118 247z"/>
<path style="fill:#6f7787; stroke:none;" d="M182 247L183 248L182 247z"/>
<path style="fill:#a0c3f3; stroke:none;" d="M118.333 248.667L118.667 249.333L118.333 248.667z"/>
<path style="fill:#6f7787; stroke:none;" d="M164 248L165 249L164 248M181 249L182 250L181 249z"/>
<path style="fill:#a0c3f3; stroke:none;" d="M165 250L166 251L165 250z"/>
<path style="fill:#6f7787; stroke:none;" d="M180 250L181 251L180 250z"/>
<path style="fill:#a0c3f3; stroke:none;" d="M166 251L167 252L166 251z"/>
<path style="fill:#6f7787; stroke:none;" d="M179 251L180 252L179 251M168 252L169 253L168 252z"/>
<path style="fill:#a0c3f3; stroke:none;" d="M178 252L179 253L178 252z"/>
<path style="fill:#6f7787; stroke:none;" d="M170.667 253.333L171.333 253.667L170.667 253.333M174.667 253.333L175.333 253.667L174.667 253.333z"/>
<path style="fill:#a0c3f3; stroke:none;" d="M176 253L177 254L176 253z"/>
<path style="fill:#6f7787; stroke:none;" d="M418 254L418 255L421 255L418 254z"/>
<path style="fill:#eb7c7c; stroke:none;" d="M421 254L422 255L421 254z"/>
<path style="fill:#a0c3f3; stroke:none;" d="M422 254L422 255L431 255L422 254z"/>
<path style="fill:#eb7c7c; stroke:none;" d="M431 254L432 255L431 254z"/>
<path style="fill:#6f7787; stroke:none;" d="M432 254L432 255L435 255L432 254M117 255L117 258L118 258L117 255M416 255L417 256L416 255z"/>
<path style="fill:#fbeae6; stroke:none;" d="M417.015 255.703C406.61 259.316 405.718 282.171 411.653 289.892C417.142 297.034 430.452 296.07 438 293.185C450.846 288.276 454.374 269.995 444.671 260.329C438.584 254.266 424.999 252.93 417.015 255.703z"/>
<path style="fill:#a0c3f3; stroke:none;" d="M436 255L437 256L436 255z"/>
<path style="fill:#6f7787; stroke:none;" d="M437 255L438 256L437 255M414 256L415 257L414 256M439 256L440 257L439 256z"/>
<path style="fill:#a0c3f3; stroke:none;" d="M413 257L414 258L413 257z"/>
<path style="fill:#6f7787; stroke:none;" d="M441 257L442 258L441 257z"/>
<path style="fill:#eb7c7c; stroke:none;" d="M117 258L118 259L117 258z"/>
<path style="fill:#a0c3f3; stroke:none;" d="M442 258L443 259L442 258M117 259L118 260L117 259M411 259L412 260L411 259z"/>
<path style="fill:#6f7787; stroke:none;" d="M410 260L411 261L410 260M116 262L116 265L117 265L116 262M409 262L410 263L409 262z"/>
<path style="fill:#a0c3f3; stroke:none;" d="M446 262L447 263L446 262z"/>
<path style="fill:#6f7787; stroke:none;" d="M447 263L448 264L447 263M408 264L408 267L409 267L408 264z"/>
<path style="fill:#a0c3f3; stroke:none;" d="M116 265L117 266L116 265z"/>
<path style="fill:#6f7787; stroke:none;" d="M448 265L449 266L448 265z"/>
<path style="fill:#eb7c7c; stroke:none;" d="M408 267L409 268L408 267z"/>
<path style="fill:#6f7787; stroke:none;" d="M449 267L450 268L449 267M115.333 268.667L115.667 269.333L115.333 268.667z"/>
<path style="fill:#a0c3f3; stroke:none;" d="M408 268L408 282L409 282L408 268M115 270L116 271L115 270z"/>
<path style="fill:#6f7787; stroke:none;" d="M450.333 270.667L450.667 271.333L450.333 270.667z"/>
<path style="fill:#a0c3f3; stroke:none;" d="M450 272L450 277L451 277L450 272z"/>
<path style="fill:#6f7787; stroke:none;" d="M114 273L115 274L114 273z"/>
<path style="fill:#eb7c7c; stroke:none;" d="M114 274L115 275L114 274z"/>
<path style="fill:#6f7787; stroke:none;" d="M113 277L114 278L113 277z"/>
<path style="fill:#eb7c7c; stroke:none;" d="M170 277L171 278L170 277z"/>
<path style="fill:#6f7787; stroke:none;" d="M171.667 277.333L172.333 277.667L171.667 277.333z"/>
<path style="fill:#020202; stroke:none;" d="M173.001 277.773C160.676 278.177 161.748 297.345 174 296.717C186.111 296.095 184.996 277.38 173.001 277.773z"/>
<path style="fill:#6f7787; stroke:none;" d="M174.667 277.333L175.333 277.667L174.667 277.333z"/>
<path style="fill:#a0c3f3; stroke:none;" d="M176 277L177 278L176 277z"/>
<path style="fill:#6f7787; stroke:none;" d="M450 277L450 280L451 280L450 277z"/>
<path style="fill:#eb7c7c; stroke:none;" d="M113 278L114 279L113 278z"/>
<path style="fill:#6f7787; stroke:none;" d="M168 278L169 279L168 278z"/>
<path style="fill:#a0c3f3; stroke:none;" d="M178 278L179 279L178 278z"/>
<path style="fill:#6f7787; stroke:none;" d="M179 279L180 280L179 279M112.333 280.667L112.667 281.333L112.333 280.667M180 280L181 281L180 280M165 281L166 282L165 281M181 281L182 282L181 281z"/>
<path style="fill:#eb7c7c; stroke:none;" d="M449 281L450 282L449 281z"/>
<path style="fill:#a0c3f3; stroke:none;" d="M112 282L113 283L112 282z"/>
<path style="fill:#eb7c7c; stroke:none;" d="M164 282L165 283L164 282z"/>
<path style="fill:#a0c3f3; stroke:none;" d="M182 282L183 283L182 282z"/>
<path style="fill:#6f7787; stroke:none;" d="M408 282L408 285L409 285L408 282M449 282L450 283L449 282M182 283L183 284L182 283z"/>
<path style="fill:#a0c3f3; stroke:none;" d="M448 283L449 284L448 283z"/>
<path style="fill:#6f7787; stroke:none;" d="M111 284L112 285L111 284z"/>
<path style="fill:#a0c3f3; stroke:none;" d="M163 284L164 285L163 284z"/>
<path style="fill:#6f7787; stroke:none;" d="M448 284L449 285L448 284z"/>
<path style="fill:#a0c3f3; stroke:none;" d="M111 285L112 286L111 285z"/>
<path style="fill:#6f7787; stroke:none;" d="M163 285L163 289L164 289L163 285z"/>
<path style="fill:#a0c3f3; stroke:none;" d="M183 285L183 289L184 289L183 285M447 285L448 286L447 285M258.667 286.333L259.333 286.667L258.667 286.333z"/>
<path style="fill:#6f7787; stroke:none;" d="M260 286L260 287L311 287C297.873 281.492 274.311 286 260 286z"/>
<path style="fill:#a0c3f3; stroke:none;" d="M311 286L311 287L314 287L311 286M409 286L410 287L409 286z"/>
<path style="fill:#6f7787; stroke:none;" d="M110 287L111 288L110 287M253.667 287.333L254.333 287.667L253.667 287.333z"/>
<path style="fill:#020202; stroke:none;" d="M255 287.465C226.285 292.644 218.572 331.189 241 348.471C254.952 359.221 277.445 355 294 355C301.491 355 309.608 355.869 317 354.535C345.623 349.373 352.448 311.46 330.91 294.043C317.089 282.866 294.575 287 278 287C270.508 287 262.392 286.131 255 287.465z"/>
<path style="fill:#6f7787; stroke:none;" d="M316.667 287.333L317.333 287.667L316.667 287.333z"/>
<path style="fill:#a0c3f3; stroke:none;" d="M318 287L319 288L318 287z"/>
<path style="fill:#6f7787; stroke:none;" d="M409 287L410 288L409 287M446 287L447 288L446 287z"/>
<path style="fill:#a0c3f3; stroke:none;" d="M110 288L111 289L110 288z"/>
<path style="fill:#6f7787; stroke:none;" d="M250 288L251 289L250 288M320 288L321 289L320 288z"/>
<path style="fill:#a0c3f3; stroke:none;" d="M321 288L322 289L321 288M410 288L411 289L410 288z"/>
<path style="fill:#6f7787; stroke:none;" d="M445 288L446 289L445 288z"/>
<path style="fill:#eb7c7c; stroke:none;" d="M163 289L164 290L163 289z"/>
<path style="fill:#a0c3f3; stroke:none;" d="M247 289L248 290L247 289z"/>
<path style="fill:#6f7787; stroke:none;" d="M323 289L324 290L323 289M444 289L445 290L444 289M109 290L110 291L109 290M182 290L183 291L182 290z"/>
<path style="fill:#a0c3f3; stroke:none;" d="M245 290L246 291L245 290z"/>
<path style="fill:#6f7787; stroke:none;" d="M325 290L326 291L325 290M411 290L412 291L411 290M443 290L444 291L443 290M164 291L165 292L164 291z"/>
<path style="fill:#a0c3f3; stroke:none;" d="M182 291L183 292L182 291z"/>
<path style="fill:#6f7787; stroke:none;" d="M244 291L245 292L244 291M327 291L328 292L327 291M412 291L413 292L412 291z"/>
<path style="fill:#a0c3f3; stroke:none;" d="M441 291L442 292L441 291z"/>
<path style="fill:#6f7787; stroke:none;" d="M108.333 292.667L108.667 293.333L108.333 292.667M242 292L243 293L242 292z"/>
<path style="fill:#a0c3f3; stroke:none;" d="M329 292L330 293L329 292z"/>
<path style="fill:#6f7787; stroke:none;" d="M440 292L441 293L440 292z"/>
<path style="fill:#eb7c7c; stroke:none;" d="M165 293L166 294L165 293z"/>
<path style="fill:#a0c3f3; stroke:none;" d="M181 293L182 294L181 293z"/>
<path style="fill:#6f7787; stroke:none;" d="M330 293L331 294L330 293M415 293L416 294L415 293z"/>
<path style="fill:#a0c3f3; stroke:none;" d="M437 293L438 294L437 293z"/>
<path style="fill:#6f7787; stroke:none;" d="M438 293L439 294L438 293M166 294L167 295L166 294z"/>
<path style="fill:#a0c3f3; stroke:none;" d="M180 294L181 295L180 294M239 294L240 295L239 294z"/>
<path style="fill:#6f7787; stroke:none;" d="M331 294L332 295L331 294M417 294L418 295L417 294z"/>
<path style="fill:#eb7c7c; stroke:none;" d="M418 294L419 295L418 294z"/>
<path style="fill:#a0c3f3; stroke:none;" d="M433 294L434 295L433 294z"/>
<path style="fill:#eb7c7c; stroke:none;" d="M434 294L435 295L434 294z"/>
<path style="fill:#6f7787; stroke:none;" d="M435 294L436 295L435 294M107 295L108 296L107 295z"/>
<path style="fill:#a0c3f3; stroke:none;" d="M167 295L168 296L167 295M238 295L239 296L238 295z"/>
<path style="fill:#6f7787; stroke:none;" d="M332 295L333 296L332 295z"/>
<path style="fill:#a0c3f3; stroke:none;" d="M107 296L108 297L107 296z"/>
<path style="fill:#6f7787; stroke:none;" d="M169.667 296.333L170.333 296.667L169.667 296.333M176 296L177 297L176 296z"/>
<path style="fill:#a0c3f3; stroke:none;" d="M177 296L178 297L177 296z"/>
<path style="fill:#6f7787; stroke:none;" d="M237 296L238 297L237 296z"/>
<path style="fill:#a0c3f3; stroke:none;" d="M172.667 297.333L173.333 297.667L172.667 297.333M236 297L237 298L236 297z"/>
<path style="fill:#6f7787; stroke:none;" d="M334 297L335 298L334 297M106 298L107 299L106 298z"/>
<path style="fill:#a0c3f3; stroke:none;" d="M235 298L236 299L235 298z"/>
<path style="fill:#6f7787; stroke:none;" d="M335 298L336 299L335 298z"/>
<path style="fill:#a0c3f3; stroke:none;" d="M106 299L107 300L106 299M234 299L235 300L234 299z"/>
<path style="fill:#6f7787; stroke:none;" d="M336 299L337 300L336 299z"/>
<path style="fill:#a0c3f3; stroke:none;" d="M337 300L338 301L337 300z"/>
<path style="fill:#6f7787; stroke:none;" d="M105 301L106 302L105 301M233 301L234 302L233 301z"/>
<path style="fill:#a0c3f3; stroke:none;" d="M105 302L106 303L105 302M232 302L233 303L232 302z"/>
<path style="fill:#6f7787; stroke:none;" d="M338 302L339 303L338 302z"/>
<path style="fill:#a0c3f3; stroke:none;" d="M339 303L340 304L339 303z"/>
<path style="fill:#6f7787; stroke:none;" d="M104 304L105 305L104 304M231 304L232 305L231 304z"/>
<path style="fill:#a0c3f3; stroke:none;" d="M104 305L105 306L104 305z"/>
<path style="fill:#6f7787; stroke:none;" d="M340 305L341 306L340 305M230 306L231 307L230 306M261 306L261 307L310 307C297.348 301.691 274.788 306 261 306M103 307L104 308L103 307M256 307L257 308L256 307z"/>
<path style="fill:#eb7c7c; stroke:none;" d="M257.001 307.653C245.076 311.411 244.889 329.168 256.004 334.005C267.53 339.022 284.668 336 297 336C302.917 336 309.353 336.546 314.985 334.336C326.638 329.765 326.495 312.688 314.999 308.009C309.971 305.963 303.325 307 298 307C285.718 307 268.733 303.955 257.001 307.653z"/>
<path style="fill:#6f7787; stroke:none;" d="M314 307L315 308L314 307M341 307L342 308L341 307z"/>
<path style="fill:#a0c3f3; stroke:none;" d="M103 308L104 309L103 308M229 308L230 309L229 308z"/>
<path style="fill:#6f7787; stroke:none;" d="M254 308L255 309L254 308M316 308L317 309L316 308M229 309L230 310L229 309M102 310L103 311L102 310M319 310L320 311L319 310M342 310L343 311L342 310z"/>
<path style="fill:#a0c3f3; stroke:none;" d="M102 311L103 312L102 311M228 311L229 312L228 311z"/>
<path style="fill:#6f7787; stroke:none;" d="M320 311L321 312L320 311M228 312L229 313L228 312M101.333 313.667L101.667 314.333L101.333 313.667M249 313L250 314L249 313z"/>
<path style="fill:#a0c3f3; stroke:none;" d="M343 313L344 314L343 313z"/>
<path style="fill:#6f7787; stroke:none;" d="M322 314L323 315L322 314M343.333 314.667L343.667 315.333L343.333 314.667z"/>
<path style="fill:#a0c3f3; stroke:none;" d="M227 315L228 316L227 315z"/>
<path style="fill:#6f7787; stroke:none;" d="M248 315L249 316L248 315M418.667 315.333L419.333 315.667L418.667 315.333z"/>
<path style="fill:#a0c3f3; stroke:none;" d="M420 315L420 316L433 316L420 315z"/>
<path style="fill:#6f7787; stroke:none;" d="M433.667 315.333L434.333 315.667L433.667 315.333M227 316L227 326L228 326L227 316M415 316L416 317L415 316z"/>
<path style="fill:#a0c3f3; stroke:none;" d="M416 316L417 317L416 316z"/>
<path style="fill:#fbeae6; stroke:none;" d="M417.015 316.653C406.799 319.942 405.918 342.098 411.009 349.906C416.074 357.674 429.27 356.974 437 354.401C450.476 349.916 454.789 331.447 444.671 321.329C438.47 315.127 425.197 314.018 417.015 316.653z"/>
<path style="fill:#6f7787; stroke:none;" d="M437 316L438 317L437 316M100 317L101 318L100 317M323 317L324 318L323 317z"/>
<path style="fill:#eb7c7c; stroke:none;" d="M414 317L415 318L414 317M439 317L440 318L439 317z"/>
<path style="fill:#a0c3f3; stroke:none;" d="M100 318L101 319L100 318z"/>
<path style="fill:#6f7787; stroke:none;" d="M247 318L247 321L248 321L247 318M441 318L442 319L441 318z"/>
<path style="fill:#a0c3f3; stroke:none;" d="M442 319L443 320L442 319z"/>
<path style="fill:#6f7787; stroke:none;" d="M99.3333 320.667L99.6667 321.333L99.3333 320.667z"/>
<path style="fill:#a0c3f3; stroke:none;" d="M411 320L412 321L411 320M173 321L174 322L173 321M344 321L345 322L344 321z"/>
<path style="fill:#eb7c7c; stroke:none;" d="M410 321L411 322L410 321z"/>
<path style="fill:#a0c3f3; stroke:none;" d="M99 322L100 323L99 322z"/>
<path style="fill:#6f7787; stroke:none;" d="M169.667 322.333L170.333 322.667L169.667 322.333M176 322L177 323L176 322z"/>
<path style="fill:#a0c3f3; stroke:none;" d="M177 322L178 323L177 322z"/>
<path style="fill:#6f7787; stroke:none;" d="M247.333 322.667L247.667 323.333L247.333 322.667z"/>
<path style="fill:#eb7c7c; stroke:none;" d="M167 323L168 324L167 323z"/>
<path style="fill:#6f7787; stroke:none;" d="M178 323L179 324L178 323z"/>
<path style="fill:#eb7c7c; stroke:none;" d="M409 323L410 324L409 323z"/>
<path style="fill:#a0c3f3; stroke:none;" d="M446 323L447 324L446 323z"/>
<path style="fill:#6f7787; stroke:none;" d="M98.3333 324.667L98.6667 325.333L98.3333 324.667M166 324L167 325L166 324z"/>
<path style="fill:#a0c3f3; stroke:none;" d="M180 324L181 325L180 324z"/>
<path style="fill:#6f7787; stroke:none;" d="M447 324L448 325L447 324M165 325L166 326L165 325M323 325L324 326L323 325M408 325L408 328L409 328L408 325z"/>
<path style="fill:#a0c3f3; stroke:none;" d="M98 326L99 327L98 326M164 326L165 327L164 326z"/>
<path style="fill:#6f7787; stroke:none;" d="M181 326L182 327L181 326z"/>
<path style="fill:#a0c3f3; stroke:none;" d="M227 326L228 327L227 326z"/>
<path style="fill:#6f7787; stroke:none;" d="M248 326L249 327L248 326M343 326L343 329L344 329L343 326z"/>
<path style="fill:#eb7c7c; stroke:none;" d="M448 326L449 327L448 326z"/>
<path style="fill:#6f7787; stroke:none;" d="M164 327L165 328L164 327z"/>
<path style="fill:#a0c3f3; stroke:none;" d="M182 327L183 328L182 327z"/>
<path style="fill:#6f7787; stroke:none;" d="M322 327L323 328L322 327M97.3333 328.667L97.6667 329.333L97.3333 328.667M182 328L183 329L182 328M249 328L250 329L249 328z"/>
<path style="fill:#a0c3f3; stroke:none;" d="M408 328L408 343L409 343L408 328z"/>
<path style="fill:#6f7787; stroke:none;" d="M449 328L450 329L449 328M163 329L163 389L164 389L164 348L163 329M228.333 329.667L228.667 330.333L228.333 329.667M321 329L322 330L321 329z"/>
<path style="fill:#a0c3f3; stroke:none;" d="M97 330L98 331L97 330M183 330L183 386L184 386L184 348L183 330z"/>
<path style="fill:#6f7787; stroke:none;" d="M320 330L321 331L320 330M342 331L343 332L342 331M450.333 331.667L450.667 332.333L450.333 331.667M96.3333 332.667L96.6667 333.333L96.3333 332.667M318 332L319 333L318 332z"/>
<path style="fill:#a0c3f3; stroke:none;" d="M342 332L343 333L342 332z"/>
<path style="fill:#6f7787; stroke:none;" d="M229 333L230 334L229 333M254 333L255 334L254 333z"/>
<path style="fill:#a0c3f3; stroke:none;" d="M450 333L450 338L451 338L450 333z"/>
<path style="fill:#eb7c7c; stroke:none;" d="M96 334L97 335L96 334z"/>
<path style="fill:#6f7787; stroke:none;" d="M256 334L257 335L256 334M315 334L316 335L315 334M341 334L342 335L341 334M230 335L231 336L230 335M259 335L259 336L262 336L259 335M310 335L310 336L313 336L310 335M340 336L341 337L340 336M95.3333 337.667L95.6667 338.333L95.3333 337.667M231 337L232 338L231 337M339 338L340 339L339 338M450.333 338.667L450.667 339.333L450.333 338.667z"/>
<path style="fill:#a0c3f3; stroke:none;" d="M95 339L96 340L95 339z"/>
<path style="fill:#6f7787; stroke:none;" d="M232 339L233 340L232 339z"/>
<path style="fill:#a0c3f3; stroke:none;" d="M338 340L339 341L338 340z"/>
<path style="fill:#6f7787; stroke:none;" d="M337 341L338 342L337 341M94.3333 342.667L94.6667 343.333L94.3333 342.667z"/>
<path style="fill:#a0c3f3; stroke:none;" d="M234 342L235 343L234 342z"/>
<path style="fill:#6f7787; stroke:none;" d="M336 342L337 343L336 342M449 342L450 343L449 342M235 343L236 344L235 343M408 343L408 346L409 346L408 343z"/>
<path style="fill:#eb7c7c; stroke:none;" d="M94 344L95 345L94 344z"/>
<path style="fill:#6f7787; stroke:none;" d="M236 344L237 345L236 344z"/>
<path style="fill:#a0c3f3; stroke:none;" d="M448 344L449 345L448 344M94 345L95 346L94 345z"/>
<path style="fill:#6f7787; stroke:none;" d="M237 345L238 346L237 345z"/>
<path style="fill:#a0c3f3; stroke:none;" d="M334 345L335 346L334 345z"/>
<path style="fill:#6f7787; stroke:none;" d="M238 346L239 347L238 346M447 346L448 347L447 346M239 347L240 348L239 347z"/>
<path style="fill:#a0c3f3; stroke:none;" d="M409 347L410 348L409 347z"/>
<path style="fill:#6f7787; stroke:none;" d="M93.3333 348.667L93.6667 349.333L93.3333 348.667z"/>
<path style="fill:#a0c3f3; stroke:none;" d="M240 348L241 349L240 348z"/>
<path style="fill:#6f7787; stroke:none;" d="M330 348L331 349L330 348M409 348L410 349L409 348M242 349L243 350L242 349z"/>
<path style="fill:#a0c3f3; stroke:none;" d="M329 349L330 350L329 349M410 349L411 350L410 349z"/>
<path style="fill:#6f7787; stroke:none;" d="M445 349L446 350L445 349z"/>
<path style="fill:#eb7c7c; stroke:none;" d="M93 350L94 351L93 350z"/>
<path style="fill:#6f7787; stroke:none;" d="M243 350L244 351L243 350M327 350L328 351L327 350M444 350L445 351L444 350z"/>
<path style="fill:#a0c3f3; stroke:none;" d="M93 351L94 352L93 351z"/>
<path style="fill:#6f7787; stroke:none;" d="M245 351L246 352L245 351z"/>
<path style="fill:#a0c3f3; stroke:none;" d="M326 351L327 352L326 351z"/>
<path style="fill:#6f7787; stroke:none;" d="M247 352L248 353L247 352z"/>
<path style="fill:#a0c3f3; stroke:none;" d="M324 352L325 353L324 352z"/>
<path style="fill:#6f7787; stroke:none;" d="M412 352L413 353L412 352z"/>
<path style="fill:#eb7c7c; stroke:none;" d="M441 352L442 353L441 352z"/>
<path style="fill:#6f7787; stroke:none;" d="M249.667 353.333L250.333 353.667L249.667 353.333M321 353L322 354L321 353z"/>
<path style="fill:#a0c3f3; stroke:none;" d="M322 353L323 354L322 353M414 353L415 354L414 353M439 353L440 354L439 353z"/>
<path style="fill:#6f7787; stroke:none;" d="M440 353L441 354L440 353M252.667 354.333L253.333 354.667L252.667 354.333M317.667 354.333L318.333 354.667L317.667 354.333z"/>
<path style="fill:#a0c3f3; stroke:none;" d="M319 354L320 355L319 354z"/>
<path style="fill:#6f7787; stroke:none;" d="M415 354L416 355L415 354z"/>
<path style="fill:#eb7c7c; stroke:none;" d="M437 354L438 355L437 354z"/>
<path style="fill:#6f7787; stroke:none;" d="M438 354L439 355L438 354M92 355L92 358L93 358L92 355z"/>
<path style="fill:#a0c3f3; stroke:none;" d="M256 355L257 356L256 355z"/>
<path style="fill:#6f7787; stroke:none;" d="M257 355L257 356L314 356L296 355L257 355z"/>
<path style="fill:#a0c3f3; stroke:none;" d="M314.667 355.333L315.333 355.667L314.667 355.333z"/>
<path style="fill:#6f7787; stroke:none;" d="M418 355L419 356L418 355z"/>
<path style="fill:#a0c3f3; stroke:none;" d="M419.667 355.333L420.333 355.667L419.667 355.333M432.667 355.333L433.333 355.667L432.667 355.333z"/>
<path style="fill:#6f7787; stroke:none;" d="M434.667 355.333L435.333 355.667L434.667 355.333z"/>
<path style="fill:#eb7c7c; stroke:none;" d="M92 358L93 359L92 358z"/>
<path style="fill:#a0c3f3; stroke:none;" d="M92 359L93 360L92 359z"/>
<path style="fill:#6f7787; stroke:none;" d="M91 364L91 370L92 370L91 364z"/>
<path style="fill:#eb7c7c; stroke:none;" d="M91 370L92 371L91 370z"/>
<path style="fill:#a0c3f3; stroke:none;" d="M91 371L91 374L92 374L91 371z"/>
<path style="fill:#6f7787; stroke:none;" d="M90 383L91 384L90 383z"/>
<path style="fill:#a0c3f3; stroke:none;" d="M90 384L91 385L90 384z"/>
<path style="fill:#6f7787; stroke:none;" d="M89 385L90 386L89 385M183.333 386.667L183.667 387.333L183.333 386.667M88 387L89 388L88 387M87 388L88 389L87 388z"/>
<path style="fill:#a0c3f3; stroke:none;" d="M387 388L388 389L387 388z"/>
<path style="fill:#eb7c7c; stroke:none;" d="M163 389L164 390L163 389z"/>
<path style="fill:#6f7787; stroke:none;" d="M387 389L388 390L387 389z"/>
<path style="fill:#a0c3f3; stroke:none;" d="M86 390L87 391L86 390M163 390L164 391L163 390M184 390L185 391L184 390z"/>
<path style="fill:#6f7787; stroke:none;" d="M85 391L86 392L85 391M184 391L185 392L184 391z"/>
<path style="fill:#a0c3f3; stroke:none;" d="M386 391L387 392L386 391z"/>
<path style="fill:#6f7787; stroke:none;" d="M84 392L85 393L84 392z"/>
<path style="fill:#a0c3f3; stroke:none;" d="M185 392L186 393L185 392z"/>
<path style="fill:#6f7787; stroke:none;" d="M386 392L387 393L386 392M164 393L165 394L164 393M185 393L186 394L185 393z"/>
<path style="fill:#a0c3f3; stroke:none;" d="M385 393L386 394L385 393M83 394L84 395L83 394z"/>
<path style="fill:#eb7c7c; stroke:none;" d="M164 394L165 395L164 394z"/>
<path style="fill:#a0c3f3; stroke:none;" d="M186 394L187 395L186 394z"/>
<path style="fill:#6f7787; stroke:none;" d="M82 395L83 396L82 395M384 395L385 396L384 395M81 396L82 397L81 396z"/>
<path style="fill:#a0c3f3; stroke:none;" d="M383 396L384 397L383 396z"/>
<path style="fill:#6f7787; stroke:none;" d="M165 397L166 398L165 397M188 397L189 398L188 397z"/>
<path style="fill:#a0c3f3; stroke:none;" d="M382 397L383 398L382 397M80 398L81 399L80 398z"/>
<path style="fill:#6f7787; stroke:none;" d="M381 398L382 399L381 398M79 399L80 400L79 399M166 399L167 400L166 399z"/>
<path style="fill:#a0c3f3; stroke:none;" d="M191 399L192 400L191 399z"/>
<path style="fill:#6f7787; stroke:none;" d="M380 399L381 400L380 399M78 400L79 401L78 400z"/>
<path style="fill:#a0c3f3; stroke:none;" d="M166 400L167 401L166 400z"/>
<path style="fill:#6f7787; stroke:none;" d="M192 400L193 401L192 400z"/>
<path style="fill:#a0c3f3; stroke:none;" d="M193 400L194 401L193 400z"/>
<path style="fill:#6f7787; stroke:none;" d="M378 400L379 401L378 400M167 401L168 402L167 401M194 401L195 402L194 401z"/>
<path style="fill:#a0c3f3; stroke:none;" d="M195 401L196 402L195 401z"/>
<path style="fill:#6f7787; stroke:none;" d="M376 401L377 402L376 401z"/>
<path style="fill:#a0c3f3; stroke:none;" d="M77 402L78 403L77 402M167 402L168 403L167 402z"/>
<path style="fill:#6f7787; stroke:none;" d="M197 402L197 403L200 403L197 402z"/>
<path style="fill:#a0c3f3; stroke:none;" d="M200 402L200 403L372 403C358.879 397.494 335.3 402 321 402L200 402z"/>
<path style="fill:#6f7787; stroke:none;" d="M372.667 402.333L373.333 402.667L372.667 402.333M76 403L77 404L76 403M168 403L169 404L168 403M169 405L170 406L169 405z"/>
<path style="fill:#a0c3f3; stroke:none;" d="M74 406L75 407L74 406z"/>
<path style="fill:#6f7787; stroke:none;" d="M170 406L171 407L170 406M73 407L74 408L73 407z"/>
<path style="fill:#a0c3f3; stroke:none;" d="M171 408L172 409L171 408z"/>
<path style="fill:#eb7c7c; stroke:none;" d="M172 409L173 410L172 409M71 410L72 411L71 410z"/>
<path style="fill:#6f7787; stroke:none;" d="M173 410L174 411L173 410M70 411L71 412L70 411M174 411L175 412L174 411M175 412L176 413L175 412z"/>
<path style="fill:#a0c3f3; stroke:none;" d="M69 413L70 414L69 413z"/>
<path style="fill:#eb7c7c; stroke:none;" d="M176 413L177 414L176 413M68 414L69 415L68 414z"/>
<path style="fill:#a0c3f3; stroke:none;" d="M177 414L178 415L177 414z"/>
<path style="fill:#6f7787; stroke:none;" d="M67 415L68 416L67 415M179 415L180 416L179 415M180 416L181 417L180 416z"/>
<path style="fill:#a0c3f3; stroke:none;" d="M66 417L67 418L66 417z"/>
<path style="fill:#6f7787; stroke:none;" d="M182 417L183 418L182 417M65 418L66 419L65 418z"/>
<path style="fill:#a0c3f3; stroke:none;" d="M183 418L184 419L183 418z"/>
<path style="fill:#6f7787; stroke:none;" d="M184 418L185 419L184 418M64 419L65 420L64 419z"/>
<path style="fill:#a0c3f3; stroke:none;" d="M185 419L186 420L185 419z"/>
<path style="fill:#6f7787; stroke:none;" d="M186 419L187 420L186 419M188 420L189 421L188 420z"/>
<path style="fill:#a0c3f3; stroke:none;" d="M63 421L64 422L63 421z"/>
<path style="fill:#6f7787; stroke:none;" d="M191.667 421.333L192.333 421.667L191.667 421.333M62 422L63 423L62 422z"/>
<path style="fill:#a0c3f3; stroke:none;" d="M195 422L196 423L195 422z"/>
<path style="fill:#6f7787; stroke:none;" d="M196 422L196 423L281 423L325 424C320.228 418.539 299.18 422 292 422L196 422M61 423L62 424L61 423z"/>
<path style="fill:#a0c3f3; stroke:none;" d="M323 423L324 424L323 423M61 424L61 492L62 492L62 445L61 424z"/>
<path style="fill:#6f7787; stroke:none;" d="M322 424L323 425L322 424M320 425L321 426L320 425z"/>
<path style="fill:#a0c3f3; stroke:none;" d="M318 426L319 427L318 426M316 427L317 428L316 427z"/>
<path style="fill:#6f7787; stroke:none;" d="M317 427L318 428L317 427z"/>
<path style="fill:#a0c3f3; stroke:none;" d="M314 428L315 429L314 428z"/>
<path style="fill:#6f7787; stroke:none;" d="M315 428L316 429L315 428z"/>
<path style="fill:#a0c3f3; stroke:none;" d="M312 429L313 430L312 429z"/>
<path style="fill:#6f7787; stroke:none;" d="M313 429L314 430L313 429z"/>
<path style="fill:#a0c3f3; stroke:none;" d="M310 430L311 431L310 430z"/>
<path style="fill:#6f7787; stroke:none;" d="M311 430L312 431L311 430M308 431L309 432L308 431M306 432L307 433L306 432z"/>
<path style="fill:#a0c3f3; stroke:none;" d="M303 433L304 434L303 433z"/>
<path style="fill:#6f7787; stroke:none;" d="M304 433L305 434L304 433M301 434L302 435L301 434z"/>
<path style="fill:#a0c3f3; stroke:none;" d="M298 435L299 436L298 435z"/>
<path style="fill:#6f7787; stroke:none;" d="M299 435L300 436L299 435z"/>
<path style="fill:#a0c3f3; stroke:none;" d="M295 436L296 437L295 436z"/>
<path style="fill:#6f7787; stroke:none;" d="M296 436L297 437L296 436M293 437L294 438L293 437z"/>
<path style="fill:#a0c3f3; stroke:none;" d="M289 438L290 439L289 438z"/>
<path style="fill:#6f7787; stroke:none;" d="M290 438L291 439L290 438z"/>
<path style="fill:#a0c3f3; stroke:none;" d="M286 439L287 440L286 439z"/>
<path style="fill:#6f7787; stroke:none;" d="M287 439L288 440L287 439M283.667 440.333L284.333 440.667L283.667 440.333z"/>
<path style="fill:#eb7c7c; stroke:none;" d="M279 441L280 442L279 441z"/>
<path style="fill:#6f7787; stroke:none;" d="M280 441L281 442L280 441z"/>
<path style="fill:#a0c3f3; stroke:none;" d="M275 442L276 443L275 442z"/>
<path style="fill:#6f7787; stroke:none;" d="M276.667 442.333L277.333 442.667L276.667 442.333z"/>
<path style="fill:#a0c3f3; stroke:none;" d="M270 443L271 444L270 443z"/>
<path style="fill:#eb7c7c; stroke:none;" d="M271 443L272 444L271 443z"/>
<path style="fill:#6f7787; stroke:none;" d="M272 443L273 444L272 443z"/>
<path style="fill:#eb7c7c; stroke:none;" d="M266 444L267 445L266 444z"/>
<path style="fill:#6f7787; stroke:none;" d="M267.667 444.333L268.333 444.667L267.667 444.333z"/>
<path style="fill:#a0c3f3; stroke:none;" d="M261 445L262 446L261 445z"/>
<path style="fill:#6f7787; stroke:none;" d="M262.667 445.333L263.333 445.667L262.667 445.333z"/>
<path style="fill:#a0c3f3; stroke:none;" d="M255 446L256 447L255 446z"/>
<path style="fill:#6f7787; stroke:none;" d="M256 446L256 447L259 447L256 446z"/>
<path style="fill:#a0c3f3; stroke:none;" d="M247 447L248 448L247 447z"/>
<path style="fill:#eb7c7c; stroke:none;" d="M248 447L249 448L248 447z"/>
<path style="fill:#6f7787; stroke:none;" d="M249 447L249 448L252 448L249 447z"/>
<path style="fill:#a0c3f3; stroke:none;" d="M241 448L242 449L241 448z"/>
<path style="fill:#6f7787; stroke:none;" d="M242.667 448.333L243.333 448.667L242.667 448.333z"/>
<path style="fill:#a0c3f3; stroke:none;" d="M239 449L240 450L239 449z"/>
<path style="fill:#6f7787; stroke:none;" d="M240 449L241 450L240 449M238 450L239 451L238 450M237 451L238 452L237 451z"/>
<path style="fill:#eb7c7c; stroke:none;" d="M236 452L237 453L236 452z"/>
<path style="fill:#a0c3f3; stroke:none;" d="M235 453L236 454L235 453z"/>
<path style="fill:#6f7787; stroke:none;" d="M233 456L234 457L233 456M232 457L233 458L232 457M231 458L232 459L231 458z"/>
<path style="fill:#a0c3f3; stroke:none;" d="M230 459L231 460L230 459z"/>
<path style="fill:#6f7787; stroke:none;" d="M228 462L229 463L228 462M227 463L228 464L227 463M226 464L227 465L226 464z"/>
<path style="fill:#a0c3f3; stroke:none;" d="M225 465L226 466L225 465M224 466L225 467L224 466z"/>
<path style="fill:#6f7787; stroke:none;" d="M222 469L223 470L222 469M221 470L222 471L221 470z"/>
<path style="fill:#eb7c7c; stroke:none;" d="M220 471L221 472L220 471z"/>
<path style="fill:#a0c3f3; stroke:none;" d="M219 472L220 473L219 472z"/>
<path style="fill:#6f7787; stroke:none;" d="M217 475L218 476L217 475M216 476L217 477L216 476M215 477L216 478L215 477z"/>
<path style="fill:#a0c3f3; stroke:none;" d="M214 478L215 479L214 478z"/>
<path style="fill:#6f7787; stroke:none;" d="M212 481L213 482L212 481M211 482L212 483L211 482M210 483L211 484L210 483z"/>
<path style="fill:#a0c3f3; stroke:none;" d="M209 484L210 485L209 484M208 485L209 486L208 485z"/>
<path style="fill:#6f7787; stroke:none;" d="M206 488L207 489L206 488M205 489L206 490L205 489z"/>
<path style="fill:#eb7c7c; stroke:none;" d="M204 490L205 491L204 490z"/>
<path style="fill:#a0c3f3; stroke:none;" d="M203 491L204 492L203 491z"/>
</svg>
